<svg width="149" height="46" viewBox="0 0 149 46" fill="none" xmlns="http://www.w3.org/2000/svg">
<path d="M18.6644 45.8015C16.8287 45.3351 14.4994 44.0701 14.8411 43.7254C15.049 43.5157 17.5769 43.3906 18.9643 43.5212C19.8173 43.6019 20.7304 43.8663 22.1096 44.4324C24.2674 45.3179 24.5822 45.5085 24.3215 45.7698C24.0329 46.0588 19.7706 46.0828 18.6644 45.8015ZM23.8458 44.077C22.7417 43.5416 21.3213 42.0022 20.5792 40.5374C19.9874 39.3682 19.7307 38.1604 20.0341 37.9721C20.3238 37.7929 22.0743 39.0031 23.224 40.1762C24.2991 41.2741 25.5 43.3531 25.5 44.1172C25.5 44.6532 25.0096 44.641 23.8458 44.077ZM13.6206 42.2172C12.411 41.9493 10.788 41.1088 10.788 40.75C10.788 40.5636 11.1069 40.525 12.3184 40.5639C13.1608 40.5908 14.2319 40.6976 14.6999 40.8013C16.1351 41.1188 17.7769 41.9499 17.4804 42.2087C17.244 42.4155 14.5445 42.4213 13.6206 42.2172ZM18.1011 41.2595C16.911 40.5218 16.1816 39.7928 15.7122 38.8717C15.0458 37.5655 14.6722 34.2929 15.1896 34.2929C15.7433 34.2929 17.7669 37.2905 18.5098 39.2117C18.7865 39.9282 19.1345 40.8023 19.2823 41.1537C19.535 41.7529 19.5329 41.7928 19.2519 41.7899C19.0865 41.7899 18.5691 41.5496 18.1019 41.2595H18.1011ZM11.1486 39.3875C9.90128 39.0943 8.34183 38.2093 7.26993 37.1876C5.94897 35.9272 6.04764 35.6533 7.66434 36.0922C9.8472 36.6845 13.5943 38.7408 13.5943 39.3463C13.5943 39.616 12.2179 39.6392 11.1486 39.3875ZM13.183 37.3793C11.9638 35.7157 11.6538 34.776 11.5816 32.5299C11.5101 30.3046 11.6391 29.9096 12.205 30.6298C12.998 31.6401 13.9604 34.7704 14.2103 37.148C14.3527 38.5065 14.057 38.5731 13.183 37.3793ZM7.98198 35.111C6.63728 34.5975 5.48438 33.8069 4.38873 32.6478C3.3994 31.6005 2.60187 30.2885 2.8583 30.1293C3.06092 30.0043 6.03603 31.2969 6.85599 31.8665C7.47386 32.2953 9.68258 35.0111 9.68258 35.3416C9.68258 35.584 8.96656 35.487 7.98198 35.111ZM9.52982 33.1126C8.82067 31.569 8.59246 30.1407 8.82067 28.6653C9.00561 27.4697 9.38657 26.3792 9.6831 26.1955C9.91817 26.0503 10.2875 26.971 10.5273 28.2975C10.778 29.6814 10.5862 34.2927 10.2783 34.2927C10.1654 34.2927 9.829 33.7617 9.52982 33.1126ZM4.46524 29.6825C3.32632 29.1291 2.11406 27.9287 1.59618 26.842C1.18673 25.9848 0.815267 24.3613 0.988334 24.1881C1.17195 24.0036 3.64792 26.022 4.46788 27.0257C5.24378 27.9755 6.2806 29.6645 6.2806 29.9786C6.2806 30.3411 5.58754 30.2282 4.46524 29.6825ZM6.89451 28.9749C6.73859 28.7364 6.45472 28.0955 6.26371 27.5508C5.8598 26.4009 5.98142 25.5567 6.71748 24.388C7.30976 23.4475 8.31545 22.3608 8.59378 22.3608C9.25571 22.3608 9.07948 24.5979 8.24185 26.8235C7.91286 27.697 7.6435 28.4932 7.64271 28.5926C7.64218 28.6917 7.53744 28.916 7.40975 29.0907C7.18761 29.3951 7.16598 29.39 6.89451 28.9749ZM2.97517 24.2312C1.57323 22.902 0.505276 20.6012 0.5 18.8965C0.5 18.3728 0.555403 18.2559 0.789148 18.3008C1.47983 18.4344 3.9281 22.7661 4.31803 24.5445C4.49611 25.3563 4.05315 25.2531 2.97517 24.2312ZM5.19734 24.0229C4.88049 22.8359 5.30789 20.744 6.16029 19.3159C6.72223 18.3743 7.87038 17.2469 8.26744 17.2469C8.76131 17.2469 8.33181 19.4481 7.4794 21.2831C6.93223 22.4621 5.66457 24.4062 5.44375 24.4062C5.36487 24.4062 5.25407 24.2336 5.19734 24.0229ZM2.62403 18.5885C1.60884 17.4621 1.12262 16.2096 1.04426 14.5198C0.96802 12.8757 1.1957 11.9641 1.59803 12.2991C2.43434 12.9945 3.65742 16.1531 3.83576 18.0769C3.94234 19.2215 3.9281 19.2926 3.60413 19.2926C3.41417 19.2926 2.97333 18.9759 2.62403 18.5885ZM4.9913 17.7247C5.19734 16.4331 6.03076 14.9717 7.1578 13.9257C8.7869 12.4141 9.43933 12.2499 9.01458 13.4588C8.63151 14.5471 7.62793 16.0616 6.48585 17.2747C5.17967 18.6628 4.82456 18.7699 4.9913 17.7247ZM3.86399 13.8847C3.32447 13.2708 2.71109 11.7853 2.5214 10.6325C2.3573 9.63677 2.37155 9.24492 2.60846 8.19047C2.8955 6.91497 3.84447 4.88883 4.15525 4.88883C4.44835 4.88883 4.77919 7.84912 4.78394 10.5138C4.79 13.7504 4.5428 14.6563 3.86399 13.8847ZM5.69491 13.5122C5.49836 13.1938 6.29062 11.5183 7.04568 10.6537C8.17035 9.36655 10.703 8.18967 10.703 8.95434C10.703 9.54952 9.16997 11.1849 7.28206 12.6029C5.83685 13.6888 5.81258 13.7028 5.69491 13.5122ZM5.77933 8.32082C5.47673 7.52311 5.28309 5.26481 5.43689 4.31956C5.61128 3.24528 6.11914 2.13027 6.73991 1.45948C7.12087 1.04727 7.19975 1.01897 7.28549 1.26408C7.49417 1.8582 7.17601 5.5776 6.79795 6.96997C6.36027 8.57888 6.03867 9.00537 5.77933 8.32082ZM7.47122 8.30998C7.47122 7.87715 8.98213 6.4594 9.93505 5.99748C10.9893 5.48665 12.744 5.30659 12.744 5.70928C12.744 6.00964 11.5871 7.00064 10.7226 7.44088C10.1229 7.74627 8.51675 8.33959 7.85429 8.50062C7.57332 8.56883 7.47122 8.51807 7.47122 8.30998ZM8.49379 4.50544C8.49379 3.59297 9.18817 2.22573 9.99045 1.54884C10.759 0.899992 13.2592 -0.188305 13.4842 0.0279796C13.9254 0.453409 12.6128 2.79552 11.3547 3.82909C10.5545 4.4864 9.28658 5.13472 8.78954 5.14081C8.5579 5.14081 8.49248 5.00252 8.49379 4.50544Z" fill="#BACC4A"/>
<path d="M41.7383 11H40.6836V3.49414H38.0176V2.54492H44.4043V3.49414H41.7383V11ZM46.5605 11H45.5176V2.54492H46.543L51.1719 9.18359H51.2246V2.54492H52.2676V11H51.2422L46.6133 4.38477H46.5605V11ZM53.5039 8.67383H54.5645C54.6641 9.58789 55.5312 10.1914 56.7383 10.1914C57.8809 10.1914 58.7129 9.58789 58.7129 8.75586C58.7129 8.04102 58.2148 7.60156 57.0781 7.30859L55.9941 7.02734C54.4355 6.62891 53.7441 5.94336 53.7441 4.79492C53.7441 3.38867 54.9746 2.4043 56.7324 2.4043C58.4141 2.4043 59.6328 3.40039 59.6797 4.81836H58.625C58.5312 3.91016 57.7988 3.35352 56.6973 3.35352C55.6016 3.35352 54.8398 3.92188 54.8398 4.74805C54.8398 5.38672 55.3086 5.76758 56.457 6.06641L57.3418 6.30078C59.0938 6.74023 59.8027 7.41406 59.8027 8.62695C59.8027 10.1738 58.584 11.1406 56.6387 11.1406C54.8457 11.1406 53.6035 10.168 53.5039 8.67383ZM63.0898 8.67383H64.1504C64.25 9.58789 65.1172 10.1914 66.3242 10.1914C67.4668 10.1914 68.2988 9.58789 68.2988 8.75586C68.2988 8.04102 67.8008 7.60156 66.6641 7.30859L65.5801 7.02734C64.0215 6.62891 63.3301 5.94336 63.3301 4.79492C63.3301 3.38867 64.5605 2.4043 66.3184 2.4043C68 2.4043 69.2188 3.40039 69.2656 4.81836H68.2109C68.1172 3.91016 67.3848 3.35352 66.2832 3.35352C65.1875 3.35352 64.4258 3.92188 64.4258 4.74805C64.4258 5.38672 64.8945 5.76758 66.043 6.06641L66.9277 6.30078C68.6797 6.74023 69.3887 7.41406 69.3887 8.62695C69.3887 10.1738 68.1699 11.1406 66.2246 11.1406C64.4316 11.1406 63.1895 10.168 63.0898 8.67383ZM75.4648 4.90625V11H74.498V10.0098H74.4746C74.1113 10.7129 73.4785 11.1055 72.541 11.1055C71.2109 11.1055 70.4316 10.2441 70.4316 8.86133V4.90625H71.4512V8.67969C71.4512 9.66992 71.9141 10.2031 72.8574 10.2031C73.8477 10.2031 74.4453 9.52344 74.4453 8.48633V4.90625H75.4648ZM79.2676 10.1504C80.3281 10.1504 81.0371 9.27148 81.0371 7.92969C81.0371 6.58789 80.3281 5.69727 79.2676 5.69727C78.2188 5.69727 77.5332 6.56445 77.5332 7.92969C77.5332 9.29492 78.2188 10.1504 79.2676 10.1504ZM79.3027 13.2969C77.9609 13.2969 76.9004 12.541 76.7305 11.5039H77.7793C77.9785 12.0605 78.582 12.4297 79.3438 12.4297C80.3984 12.4297 81.0371 11.8203 81.0371 10.9121V9.95117H81.0137C80.6387 10.6133 79.918 11.0469 79.0625 11.0469C77.5098 11.0469 76.4902 9.82227 76.4902 7.92969C76.4902 6.01953 77.5098 4.80078 79.0859 4.80078C79.9473 4.80078 80.6621 5.22266 81.0664 5.93164H81.084V4.90625H82.0566V10.877C82.0566 12.3301 80.9844 13.2969 79.3027 13.2969ZM85.8652 10.1504C86.9258 10.1504 87.6348 9.27148 87.6348 7.92969C87.6348 6.58789 86.9258 5.69727 85.8652 5.69727C84.8164 5.69727 84.1309 6.56445 84.1309 7.92969C84.1309 9.29492 84.8164 10.1504 85.8652 10.1504ZM85.9004 13.2969C84.5586 13.2969 83.498 12.541 83.3281 11.5039H84.377C84.5762 12.0605 85.1797 12.4297 85.9414 12.4297C86.9961 12.4297 87.6348 11.8203 87.6348 10.9121V9.95117H87.6113C87.2363 10.6133 86.5156 11.0469 85.6602 11.0469C84.1074 11.0469 83.0879 9.82227 83.0879 7.92969C83.0879 6.01953 84.1074 4.80078 85.6836 4.80078C86.5449 4.80078 87.2598 5.22266 87.6641 5.93164H87.6816V4.90625H88.6543V10.877C88.6543 12.3301 87.582 13.2969 85.9004 13.2969ZM92.4277 5.68555C91.4727 5.68555 90.8047 6.41797 90.7402 7.43164H94.0508C94.0273 6.41211 93.3887 5.68555 92.4277 5.68555ZM94.0273 9.25391H95.0293C94.8535 10.3203 93.8223 11.1055 92.4922 11.1055C90.7461 11.1055 89.6855 9.89258 89.6855 7.97656C89.6855 6.08398 90.7637 4.80078 92.4453 4.80078C94.0918 4.80078 95.1055 5.99609 95.1055 7.8418V8.22852H90.7344V8.28711C90.7344 9.45312 91.4199 10.2207 92.5156 10.2207C93.2891 10.2207 93.8574 9.82812 94.0273 9.25391ZM96.0312 6.58789C96.0312 5.54492 96.9629 4.80078 98.3047 4.80078C99.5645 4.80078 100.49 5.55078 100.537 6.58203H99.5645C99.4941 5.99609 99.0195 5.63281 98.2695 5.63281C97.5254 5.63281 97.0332 6.00195 97.0332 6.53516C97.0332 6.95703 97.3555 7.23828 98.0469 7.41406L98.9902 7.64258C100.221 7.95312 100.666 8.39844 100.666 9.29492C100.666 10.3555 99.6641 11.1055 98.2402 11.1055C96.9043 11.1055 95.9727 10.3789 95.8672 9.30078H96.8867C96.998 9.93359 97.4785 10.2734 98.3047 10.2734C99.1309 10.2734 99.6406 9.92188 99.6406 9.37109C99.6406 8.9375 99.3887 8.70312 98.7031 8.52148L97.6309 8.24609C96.5586 7.9707 96.0312 7.41992 96.0312 6.58789ZM102.055 3.43555H103.074V4.90625H104.258V5.74414H103.074V9.36523C103.074 9.92188 103.309 10.1738 103.83 10.1738C103.947 10.1738 104.182 10.1562 104.252 10.1445V11C104.129 11.0293 103.848 11.0469 103.607 11.0469C102.488 11.0469 102.055 10.5898 102.055 9.41797V5.74414H101.146V4.90625H102.055V3.43555ZM105.242 6.58789C105.242 5.54492 106.174 4.80078 107.516 4.80078C108.775 4.80078 109.701 5.55078 109.748 6.58203H108.775C108.705 5.99609 108.23 5.63281 107.48 5.63281C106.736 5.63281 106.244 6.00195 106.244 6.53516C106.244 6.95703 106.566 7.23828 107.258 7.41406L108.201 7.64258C109.432 7.95312 109.877 8.39844 109.877 9.29492C109.877 10.3555 108.875 11.1055 107.451 11.1055C106.115 11.1055 105.184 10.3789 105.078 9.30078H106.098C106.209 9.93359 106.689 10.2734 107.516 10.2734C108.342 10.2734 108.852 9.92188 108.852 9.37109C108.852 8.9375 108.6 8.70312 107.914 8.52148L106.842 8.24609C105.77 7.9707 105.242 7.41992 105.242 6.58789Z" fill="white"/>
<path d="M30.4883 27H28.7188V20.0039H26.2754V18.5449H32.9375V20.0039H30.4883V27ZM35.2695 27.1348C33.3711 27.1348 32.1582 25.916 32.1582 23.8535C32.1582 21.8203 33.3887 20.584 35.2695 20.584C37.1504 20.584 38.3809 21.8145 38.3809 23.8535C38.3809 25.9219 37.168 27.1348 35.2695 27.1348ZM35.2695 25.8281C36.1074 25.8281 36.6406 25.1191 36.6406 23.8594C36.6406 22.6113 36.1016 21.8906 35.2695 21.8906C34.4375 21.8906 33.8926 22.6113 33.8926 23.8594C33.8926 25.1191 34.4258 25.8281 35.2695 25.8281ZM42.9336 20.6191C44.5273 20.6191 45.5059 21.832 45.5059 23.8594C45.5059 25.8809 44.5332 27.0996 42.9629 27.0996C42.0488 27.0996 41.3457 26.6543 41.0117 25.9453H40.9766V29.0508H39.2656V20.7188H40.9531V21.8145H40.9883C41.3281 21.0762 42.0254 20.6191 42.9336 20.6191ZM42.3594 25.7227C43.2148 25.7227 43.7539 25.002 43.7539 23.8594C43.7539 22.7227 43.2148 21.9902 42.3594 21.9902C41.5215 21.9902 40.9707 22.7344 40.9707 23.8594C40.9707 24.9961 41.5215 25.7227 42.3594 25.7227ZM52.0625 27.1875C50.2461 27.1875 48.9395 26.1094 48.8867 24.5801H50.5215C50.6211 25.2949 51.2539 25.7871 52.0742 25.7871C53 25.7871 53.6387 25.1426 53.6387 24.2227C53.6387 23.2852 53 22.6289 52.0859 22.6289C51.4473 22.6289 50.8965 22.9219 50.6035 23.4082H49.0215L49.4375 18.5449H54.8164V19.9512H50.8262L50.6328 22.2656H50.668C51.0137 21.6973 51.6875 21.3398 52.5488 21.3398C54.166 21.3398 55.3262 22.5293 55.3262 24.1758C55.3262 25.9688 54.002 27.1875 52.0625 27.1875ZM59.6211 27.1875C57.4941 27.1875 56.1992 25.4941 56.1992 22.7578C56.1992 20.0273 57.5059 18.3516 59.6211 18.3516C61.7363 18.3516 63.0371 20.0215 63.0371 22.752C63.0371 25.4824 61.748 27.1875 59.6211 27.1875ZM59.6211 25.7695C60.6289 25.7695 61.2383 24.6855 61.2383 22.7578C61.2383 20.8477 60.623 19.7695 59.6211 19.7695C58.625 19.7695 57.998 20.8535 57.998 22.7578C57.998 24.6797 58.6133 25.7695 59.6211 25.7695ZM70.3555 27H66.6113V18.5449H70.291C71.8789 18.5449 72.875 19.3594 72.875 20.6543C72.875 21.5801 72.1836 22.3535 71.2871 22.4883V22.5352C72.4355 22.623 73.2793 23.4609 73.2793 24.5801C73.2793 26.0684 72.1602 27 70.3555 27ZM68.3809 19.8633V22.0605H69.6523C70.5957 22.0605 71.1348 21.6445 71.1348 20.9297C71.1348 20.25 70.6602 19.8633 69.834 19.8633H68.3809ZM68.3809 25.6816H69.9043C70.9238 25.6816 71.4746 25.248 71.4746 24.4395C71.4746 23.6484 70.9062 23.2266 69.8633 23.2266H68.3809V25.6816ZM76.959 21.8496C76.209 21.8496 75.6699 22.418 75.6113 23.2031H78.2773C78.2422 22.4004 77.7207 21.8496 76.959 21.8496ZM78.3008 25.0781H79.8711C79.6836 26.3086 78.5586 27.1348 77.0059 27.1348C75.0723 27.1348 73.9121 25.8984 73.9121 23.8887C73.9121 21.8848 75.084 20.584 76.9414 20.584C78.7695 20.584 79.9238 21.8203 79.9238 23.7305V24.252H75.5938V24.3574C75.5938 25.2539 76.1621 25.8691 77.0352 25.8691C77.6621 25.8691 78.1426 25.5586 78.3008 25.0781ZM80.7031 22.5645C80.7031 21.3691 81.7402 20.584 83.3516 20.584C84.9277 20.584 85.9531 21.3809 85.9766 22.5996H84.4004C84.3652 22.0957 83.9609 21.7852 83.3281 21.7852C82.7363 21.7852 82.3496 22.0547 82.3496 22.459C82.3496 22.7695 82.6191 22.9805 83.1699 23.1094L84.3711 23.3672C85.6309 23.6484 86.1406 24.1465 86.1406 25.084C86.1406 26.3203 85.0039 27.1348 83.3457 27.1348C81.6699 27.1348 80.6387 26.3262 80.5449 25.1016H82.2148C82.2969 25.6289 82.7129 25.9336 83.3926 25.9336C84.043 25.9336 84.4355 25.6758 84.4355 25.2656C84.4355 24.9492 84.2246 24.7734 83.6621 24.6387L82.502 24.3809C81.3125 24.1113 80.7031 23.4902 80.7031 22.5645ZM87.4531 19.2715H89.1641V20.7188H90.3242V22.0078H89.1641V25.0137C89.1641 25.4941 89.3984 25.7227 89.9023 25.7227C90.0547 25.7227 90.2129 25.7109 90.3184 25.6934V26.9531C90.1426 26.9941 89.8496 27.0234 89.5039 27.0234C88.0273 27.0234 87.4531 26.5312 87.4531 25.3066V22.0078H86.5684V20.7188H87.4531V19.2715ZM95.5566 27H93.7871V18.5449H99.3242V20.0039H95.5566V22.2715H98.9961V23.6719H95.5566V27ZM100.256 27V20.7188H101.967V27H100.256ZM101.111 20.0273C100.596 20.0273 100.197 19.6348 100.197 19.1426C100.197 18.6445 100.596 18.2578 101.111 18.2578C101.627 18.2578 102.025 18.6445 102.025 19.1426C102.025 19.6348 101.627 20.0273 101.111 20.0273ZM103.15 27V18.5449H104.861V27H103.15ZM106.016 27V20.7188H107.668V21.8555H107.703C107.967 21.0996 108.641 20.6016 109.496 20.6016C110.404 20.6016 111.037 21.0703 111.248 21.8906H111.283C111.564 21.0996 112.314 20.6016 113.234 20.6016C114.465 20.6016 115.291 21.4453 115.291 22.7109V27H113.58V23.1387C113.58 22.4121 113.217 22.0137 112.555 22.0137C111.904 22.0137 111.477 22.4883 111.477 23.1855V27H109.83V23.0859C109.83 22.4121 109.449 22.0137 108.816 22.0137C108.166 22.0137 107.727 22.5059 107.727 23.209V27H106.016ZM116.27 22.5645C116.27 21.3691 117.307 20.584 118.918 20.584C120.494 20.584 121.52 21.3809 121.543 22.5996H119.967C119.932 22.0957 119.527 21.7852 118.895 21.7852C118.303 21.7852 117.916 22.0547 117.916 22.459C117.916 22.7695 118.186 22.9805 118.736 23.1094L119.938 23.3672C121.197 23.6484 121.707 24.1465 121.707 25.084C121.707 26.3203 120.57 27.1348 118.912 27.1348C117.236 27.1348 116.205 26.3262 116.111 25.1016H117.781C117.863 25.6289 118.279 25.9336 118.959 25.9336C119.609 25.9336 120.002 25.6758 120.002 25.2656C120.002 24.9492 119.791 24.7734 119.229 24.6387L118.068 24.3809C116.879 24.1113 116.27 23.4902 116.27 22.5645Z" fill="white"/>
<path d="M51.0195 43.1055C49.332 43.1055 48.1953 41.8926 48.1953 39.9531C48.1953 38.0078 49.332 36.8008 51.0195 36.8008C52.7012 36.8008 53.8379 38.0078 53.8379 39.9531C53.8379 41.8926 52.7012 43.1055 51.0195 43.1055ZM51.0195 42.209C52.0977 42.209 52.8008 41.3887 52.8008 39.9531C52.8008 38.5176 52.0977 37.6973 51.0195 37.6973C49.9414 37.6973 49.2324 38.5176 49.2324 39.9531C49.2324 41.3887 49.9414 42.209 51.0195 42.209ZM55.1973 43V37.7441H54.3477V36.9062H55.1973V36.2266C55.1973 35.0547 55.7422 34.498 56.8672 34.498C57.0957 34.498 57.3418 34.5215 57.4883 34.5449V35.3711C57.3652 35.3535 57.1953 35.3359 57.0254 35.3359C56.4746 35.3359 56.2109 35.6289 56.2109 36.2324V36.9062H57.459V37.7441H56.2168V43H55.1973ZM66.6289 43L65.7793 40.5801H62.416L61.5664 43H60.459L63.5762 34.5449H64.6191L67.7363 43H66.6289ZM64.0801 35.8281L62.7266 39.6836H65.4688L64.1152 35.8281H64.0801ZM68.5977 43V34.5449H69.6172V43H68.5977ZM71.0469 43V34.5449H72.0664V43H71.0469ZM79.2559 43H78.2012V35.4941H75.5352V34.5449H81.9219V35.4941H79.2559V43ZM82.6367 43V36.9062H83.6562V43H82.6367ZM83.1465 35.8809C82.8008 35.8809 82.5137 35.5938 82.5137 35.248C82.5137 34.8965 82.8008 34.6152 83.1465 34.6152C83.498 34.6152 83.7852 34.8965 83.7852 35.248C83.7852 35.5938 83.498 35.8809 83.1465 35.8809ZM85.0332 43V36.9062H85.9941V37.8789H86.0176C86.3047 37.2344 86.9258 36.8008 87.7461 36.8008C88.5781 36.8008 89.1934 37.2227 89.457 37.9609H89.4805C89.8203 37.2344 90.5352 36.8008 91.3906 36.8008C92.5977 36.8008 93.377 37.5859 93.377 38.793V43H92.3574V39.0273C92.3574 38.1953 91.8945 37.7031 91.0918 37.7031C90.2832 37.7031 89.7148 38.3008 89.7148 39.127V43H88.6953V38.916C88.6953 38.1836 88.2031 37.7031 87.4473 37.7031C86.6387 37.7031 86.0527 38.3359 86.0527 39.1797V43H85.0332ZM97.1211 37.6855C96.166 37.6855 95.498 38.418 95.4336 39.4316H98.7441C98.7207 38.4121 98.082 37.6855 97.1211 37.6855ZM98.7207 41.2539H99.7227C99.5469 42.3203 98.5156 43.1055 97.1855 43.1055C95.4395 43.1055 94.3789 41.8926 94.3789 39.9766C94.3789 38.084 95.457 36.8008 97.1387 36.8008C98.7852 36.8008 99.7988 37.9961 99.7988 39.8418V40.2285H95.4277V40.2871C95.4277 41.4531 96.1133 42.2207 97.209 42.2207C97.9824 42.2207 98.5508 41.8281 98.7207 41.2539Z" fill="white"/>
<path d="M129.609 45.8015C131.518 45.3351 133.941 44.0701 133.585 43.7254C133.369 43.5157 130.74 43.3906 129.297 43.5212C128.41 43.6019 127.46 43.8663 126.026 44.4324C123.782 45.3179 123.455 45.5085 123.726 45.7698C124.026 46.0588 128.459 46.0828 129.609 45.8015ZM124.22 44.077C125.369 43.5416 126.846 42.0022 127.618 40.5374C128.233 39.3682 128.5 38.1604 128.184 37.9721C127.883 37.7929 126.063 39.0031 124.867 40.1762C123.749 41.2741 122.5 43.3531 122.5 44.1172C122.5 44.6532 123.01 44.641 124.22 44.077ZM134.855 42.2172C136.113 41.9493 137.8 41.1088 137.8 40.75C137.8 40.5636 137.469 40.525 136.209 40.5639C135.333 40.5908 134.219 40.6976 133.732 40.8013C132.239 41.1188 130.532 41.9499 130.84 42.2087C131.086 42.4155 133.894 42.4213 134.855 42.2172ZM130.195 41.2595C131.433 40.5218 132.191 39.7928 132.679 38.8717C133.372 37.5655 133.761 34.2929 133.223 34.2929C132.647 34.2929 130.542 37.2905 129.77 39.2117C129.482 39.9282 129.12 40.8023 128.966 41.1537C128.704 41.7529 128.706 41.7928 128.998 41.7899C129.17 41.7899 129.708 41.5496 130.194 41.2595H130.195ZM137.425 39.3875C138.723 39.0943 140.344 38.2093 141.459 37.1876C142.833 35.9272 142.73 35.6533 141.049 36.0922C138.779 36.6845 134.882 38.7408 134.882 39.3463C134.882 39.616 136.313 39.6392 137.425 39.3875ZM135.31 37.3793C136.578 35.7157 136.9 34.776 136.975 32.5299C137.05 30.3046 136.915 29.9096 136.327 30.6298C135.502 31.6401 134.501 34.7704 134.241 37.148C134.093 38.5065 134.401 38.5731 135.31 37.3793ZM140.719 35.111C142.117 34.5975 143.316 33.8069 144.456 32.6478C145.485 31.6005 146.314 30.2885 146.047 30.1293C145.837 30.0043 142.743 31.2969 141.89 31.8665C141.247 32.2953 138.95 35.0111 138.95 35.3416C138.95 35.584 139.695 35.487 140.719 35.111ZM139.109 33.1126C139.847 31.569 140.084 30.1407 139.847 28.6653C139.654 27.4697 139.258 26.3792 138.95 26.1955C138.705 26.0503 138.321 26.971 138.072 28.2975C137.811 29.6814 138.01 34.2927 138.331 34.2927C138.448 34.2927 138.798 33.7617 139.109 33.1126ZM144.376 29.6825C145.561 29.1291 146.821 27.9287 147.36 26.842C147.786 25.9848 148.172 24.3613 147.992 24.1881C147.801 24.0036 145.226 26.022 144.373 27.0257C143.566 27.9755 142.488 29.6645 142.488 29.9786C142.488 30.3411 143.209 30.2282 144.376 29.6825ZM141.85 28.9749C142.012 28.7364 142.307 28.0955 142.506 27.5508C142.926 26.4009 142.799 25.5567 142.034 24.388C141.418 23.4475 140.372 22.3608 140.082 22.3608C139.394 22.3608 139.577 24.5979 140.448 26.8235C140.791 27.697 141.071 28.4932 141.072 28.5926C141.072 28.6917 141.181 28.916 141.314 29.0907C141.545 29.3951 141.567 29.39 141.85 28.9749ZM145.926 24.2312C147.384 22.902 148.495 20.6012 148.5 18.8965C148.5 18.3728 148.442 18.2559 148.199 18.3008C147.481 18.4344 144.935 22.7661 144.529 24.5445C144.344 25.3563 144.805 25.2531 145.926 24.2312ZM143.615 24.0229C143.944 22.8359 143.5 20.744 142.613 19.3159C142.029 18.3743 140.835 17.2469 140.422 17.2469C139.908 17.2469 140.355 19.4481 141.241 21.2831C141.81 22.4621 143.129 24.4062 143.358 24.4062C143.441 24.4062 143.556 24.2336 143.615 24.0229ZM146.291 18.5885C147.347 17.4621 147.852 16.2096 147.934 14.5198C148.013 12.8757 147.776 11.9641 147.358 12.2991C146.488 12.9945 145.216 16.1531 145.031 18.0769C144.92 19.2215 144.935 19.2926 145.272 19.2926C145.469 19.2926 145.928 18.9759 146.291 18.5885ZM143.829 17.7247C143.615 16.4331 142.748 14.9717 141.576 13.9257C139.882 12.4141 139.203 12.2499 139.645 13.4588C140.043 14.5471 141.087 16.0616 142.275 17.2747C143.633 18.6628 144.002 18.7699 143.829 17.7247ZM145.001 13.8847C145.563 13.2708 146.2 11.7853 146.398 10.6325C146.568 9.63677 146.554 9.24492 146.307 8.19047C146.009 6.91497 145.022 4.88883 144.699 4.88883C144.394 4.88883 144.05 7.84912 144.045 10.5138C144.038 13.7504 144.295 14.6563 145.001 13.8847ZM143.097 13.5122C143.302 13.1938 142.478 11.5183 141.692 10.6537C140.523 9.36655 137.889 8.18967 137.889 8.95434C137.889 9.54952 139.483 11.1849 141.447 12.6029C142.95 13.6888 142.975 13.7028 143.097 13.5122ZM143.009 8.32082C143.324 7.52311 143.526 5.26481 143.366 4.31956C143.184 3.24528 142.656 2.13027 142.01 1.45948C141.614 1.04727 141.532 1.01897 141.443 1.26408C141.226 1.8582 141.557 5.5776 141.95 6.96997C142.405 8.57888 142.74 9.00537 143.009 8.32082ZM141.25 8.30998C141.25 7.87715 139.679 6.4594 138.688 5.99748C137.591 5.48665 135.766 5.30659 135.766 5.70928C135.766 6.00964 136.969 7.00064 137.869 7.44088C138.492 7.74627 140.163 8.33959 140.852 8.50062C141.144 8.56883 141.25 8.51807 141.25 8.30998ZM140.186 4.50544C140.186 3.59297 139.464 2.22573 138.63 1.54884C137.831 0.899992 135.23 -0.188305 134.996 0.0279796C134.538 0.453409 135.903 2.79552 137.211 3.82909C138.043 4.4864 139.362 5.13472 139.879 5.14081C140.12 5.14081 140.188 5.00252 140.186 4.50544Z" fill="#BACC4A"/>
</svg>
