<svg width="70" height="29" viewBox="0 0 70 29" fill="none" xmlns="http://www.w3.org/2000/svg">
<path d="M20.5392 28.7793H12.8742V17.8302H7.89833V28.7793H0.0291667L0 0.557648H7.89833V11.0576H12.8742V0.557648H20.5392V28.7793ZM55.6646 28.9135C63.5687 28.9076 70 22.3422 70 14.4351C70.0116 12.5487 69.6488 10.6786 68.9327 8.93333C68.2166 7.18802 67.1613 5.60212 65.828 4.26748C64.4947 2.93283 62.9099 1.87596 61.1653 1.15805C59.4207 0.440141 57.5511 0.0754683 55.6646 0.0851487C47.7692 0.0793154 43.7354 5.89223 42.7379 8.23723C42.7467 4.71681 39.2758 0.560565 35.2129 0.554731H22.1375V28.7706L34.3321 28.7735C39.2496 28.7735 42.7496 24.5152 42.7554 20.8606C43.8783 23.1589 47.7721 28.9164 55.6675 28.9106L55.6646 28.9135ZM33.3083 17.4335C34.4371 17.4335 35.3267 18.5476 35.3267 19.8164C35.3267 21.0851 34.4371 22.1993 33.3083 22.1993H29.4292V17.4335H33.3083ZM33.3229 6.83723C34.4517 6.83723 35.3413 7.9514 35.3413 9.22015C35.3413 10.4918 34.4517 11.606 33.3229 11.606H29.4438V6.83723H33.3229ZM38.4854 14.441C39.375 14.3272 40.8567 13.3122 41.3788 12.6618C41.195 13.4668 41.1804 15.7943 41.3963 16.5993C40.8013 15.6835 39.3896 14.5547 38.4854 14.441ZM48.4896 14.441C48.4896 13.498 48.6753 12.5642 49.0362 11.693C49.3971 10.8218 49.926 10.0302 50.5928 9.36337C51.2596 8.69657 52.0512 8.16763 52.9224 7.80676C53.7936 7.44589 54.7274 7.26015 55.6704 7.26015C56.6134 7.26015 57.5472 7.44589 58.4184 7.80676C59.2896 8.16763 60.0812 8.69657 60.748 9.36337C61.4148 10.0302 61.9438 10.8218 62.3046 11.693C62.6655 12.5642 62.8512 13.498 62.8512 14.441C62.8512 16.3458 62.0946 18.1727 60.7476 19.5196C59.4007 20.8666 57.5738 21.6233 55.669 21.6233C53.7641 21.6233 51.9373 20.8666 50.5903 19.5196C49.2434 18.1727 48.4896 16.3458 48.4896 14.441ZM55.6704 20.0877C57.168 20.0877 58.6043 19.4927 59.6632 18.4338C60.7222 17.3748 61.3171 15.9386 61.3171 14.441C61.3171 12.9434 60.7222 11.5071 59.6632 10.4482C58.6043 9.38923 57.168 8.79432 55.6704 8.79432C54.1728 8.79432 52.7366 9.38923 51.6776 10.4482C50.6187 11.5071 50.0238 12.9434 50.0238 14.441C50.0238 15.9386 50.6187 17.3748 51.6776 18.4338C52.7366 19.4927 54.1728 20.0877 55.6704 20.0877Z" fill="white"/>
</svg>
