<svg width="106" height="58" viewBox="0 0 106 58" fill="none" xmlns="http://www.w3.org/2000/svg">
<path d="M21 20.7375L21.1639 20.5144H25.2409C24.4216 19.5001 23.9298 18.3236 23.9298 16.9848C23.9298 14.1246 26.2856 11.3458 30.7723 11.3458C35.4636 11.3458 39.8478 13.9421 44.068 18.7088L43.3305 19.723H43.1666C39.8067 16.0109 36.2012 13.6582 32.1856 13.6582C28.4161 13.6582 26.265 15.7881 26.265 18.3031C26.265 19.3174 26.5107 20.0274 26.9 20.5141H30.1369L31.1202 22.4817L30.9563 22.7048H27.2482L27.3301 41.285L27.1251 41.5082L24.8306 40.8996L24.8921 22.7048H21.983L21 20.7375Z" fill="#BACC4A"/>
<path d="M29.1533 20.7375L29.3172 20.5143H47.5297L48.513 22.4819L48.3491 22.7051H44.5796L44.6206 27.8776L44.3749 28.1616C43.2073 28.121 42.0394 28.1008 40.7486 28.1008C38.106 28.1008 36.0573 28.5064 35.1969 29.2568C34.5411 29.8046 34.2954 30.474 34.2954 31.123C34.2954 32.0357 34.6436 32.7659 35.2994 33.3339C36.9587 31.9342 38.8642 31.0417 41.2404 31.0417C42.9612 31.0417 44.1291 31.6909 45.092 32.6238C46.0549 33.5567 46.6489 34.8956 46.6489 36.1736C46.6489 38.0599 45.092 39.4394 42.7359 40.5144H42.5923C41.9983 39.9666 41.363 39.3177 40.6051 38.3845C42.9609 37.3703 44.7435 36.2546 44.7435 34.916C44.7435 34.0843 44.0674 33.4555 42.3876 33.4555C40.3186 33.4555 36.0162 35.0985 36.0162 38.3643C36.0162 42.198 40.8922 43.8612 47.2633 44.5104L45.7472 46.9243H45.6036C38.1671 45.0582 33.5576 42.0966 33.5576 37.3706C33.5576 36.3564 33.824 35.3623 34.418 34.4701C32.7586 32.9894 31.8367 31.4476 31.8367 29.9061C31.8367 28.5064 32.4103 27.4314 33.5576 26.7216C34.6433 26.0724 36.5485 25.7884 39.2325 25.7884H41.7112C42.0798 25.7884 42.2645 25.5854 42.2645 25.2611V22.7054H30.1366L29.1533 20.7375Z" fill="#BACC4A"/>
<path d="M46.5469 20.7375L46.7108 20.5143H75.8631L76.8464 22.4819L76.6825 22.7051H72.114L72.1344 28.7296L71.9294 28.9325H68.9178C64.165 28.9325 61.9318 30.4132 61.9318 33.0704C61.9318 35.4234 63.7551 37.2287 66.5617 37.2287C67.6678 37.2287 68.6718 36.9448 69.7165 36.4377C69.184 35.9104 68.9175 35.2611 68.9175 34.4499C68.9175 33.2532 69.9622 32.0968 71.3963 32.0968C72.2156 32.0968 72.8713 32.401 73.4449 32.9689C74.0596 33.5977 74.3875 34.3279 74.3875 35.1596C74.3875 36.2549 73.7935 37.1679 72.646 37.9385C74.7765 39.8655 75.5961 41.4476 75.5961 42.7051C75.5961 44.3683 74.6128 45.5448 73.1788 46.5187H73.0149L70.5769 44.5917C71.9905 43.6585 72.9124 42.6443 72.9124 41.3868C72.9124 40.5147 72.4617 39.6017 71.4784 38.6281C70.2491 39.2367 69.02 39.4394 67.7499 39.4394C62.8332 39.4394 59.412 35.7071 59.412 31.9544C59.412 31.3865 59.4938 30.8592 59.6373 30.3722C58.8998 30.3114 58.1623 30.2912 57.4862 30.2912C56.134 30.2912 54.9664 30.4129 54.106 30.6767V32.3398C54.106 33.2324 54.0241 33.841 53.901 34.0843C53.5938 34.6116 53.1224 34.8552 52.5284 34.8552C51.6065 34.8552 48.9432 32.1778 48.9432 30.4129C48.9432 29.7028 49.4143 29.0539 50.3979 28.6076C51.504 28.1207 52.8152 27.999 54.147 27.999C55.4788 27.999 58.654 28.1815 60.7845 28.4251C62.0139 27.2079 63.9804 26.5792 66.357 26.5792H69.2046C69.6143 26.5792 69.8193 26.3762 69.8193 26.0112V22.7051H47.5299L46.5469 20.7375Z" fill="#BACC4A"/>
<path d="M74.8799 20.7375L75.0438 20.5144H78.7723C78.4444 15.8288 76.5596 13.5164 73.7734 13.5164C71.8272 13.5164 70.7619 14.8347 70.7619 16.2751C70.7619 17.4922 71.3151 18.6281 72.1344 19.6827L71.9501 19.9058L69.7786 18.9118C68.836 17.7961 68.2217 16.5994 68.2217 15.3214C68.2217 13.1915 69.7582 11.4675 72.6262 11.4675C76.5597 11.4675 80.3702 15.1997 81.0667 20.5141H84.0168L85.0001 22.4817L84.8362 22.7049H81.1281L81.2099 41.2851L81.005 41.5082L78.7105 40.8996L78.772 22.7049H75.8629L74.8799 20.7375Z" fill="#BACC4A"/>
</svg>
