<svg width="20" height="18" viewBox="0 0 20 18" fill="none" xmlns="http://www.w3.org/2000/svg">
<path d="M11 17V15C11 12.2386 8.76142 10 6 10C3.23858 10 1 12.2386 1 15V17H11ZM11 17H19V16C19 13.0545 16.7614 11 14 11C12.5867 11 11.3103 11.6255 10.4009 12.6311M9 4C9 5.65686 7.65685 7 6 7C4.34315 7 3 5.65686 3 4C3 2.34315 4.34315 1 6 1C7.65685 1 9 2.34315 9 4ZM16 6C16 7.10457 15.1046 8 14 8C12.8954 8 12 7.10457 12 6C12 4.89543 12.8954 4 14 4C15.1046 4 16 4.89543 16 6Z" stroke="#BACC4A" stroke-width="2" stroke-linecap="round" stroke-linejoin="round"/>
</svg>
