<svg width="20" height="20" viewBox="0 0 20 20" fill="none" xmlns="http://www.w3.org/2000/svg">
<path d="M6.5 10.5L8.00889 12.0089C8.35265 12.3526 8.52453 12.5245 8.71981 12.5822C8.89137 12.6328 9.07494 12.6245 9.24121 12.5585C9.43047 12.4834 9.58608 12.2967 9.89731 11.9232L14 7M14.3287 2.75855C15.0676 2.77963 15.8001 3.07212 16.364 3.636C16.9278 4.19989 17.2203 4.9324 17.2414 5.67121C17.2623 6.40232 17.2727 6.76787 17.2942 6.85296C17.3401 7.0351 17.2867 6.90625 17.383 7.06752C17.428 7.14286 17.6792 7.40876 18.1814 7.94045C18.6889 8.47778 19 9.20255 19 10C19 10.7974 18.6889 11.5222 18.1814 12.0595C17.6792 12.5912 17.428 12.8571 17.383 12.9325C17.2867 13.0937 17.3401 12.9649 17.2942 13.147C17.2727 13.2321 17.2623 13.5977 17.2414 14.3288C17.2203 15.0676 16.9278 15.8001 16.364 16.364C15.8001 16.9279 15.0676 17.2204 14.3287 17.2414C13.5976 17.2623 13.2321 17.2727 13.147 17.2942C12.9649 17.3401 13.0937 17.2868 12.9325 17.3831C12.8571 17.4281 12.5912 17.6792 12.0595 18.1814C11.5222 18.6889 10.7974 19 10 19C9.20257 19 8.4778 18.6889 7.94047 18.1814C7.40874 17.6792 7.14287 17.4281 7.06753 17.3831C6.90626 17.2868 7.0351 17.3401 6.85296 17.2942C6.76788 17.2727 6.40225 17.2623 5.67121 17.2414C4.93238 17.2204 4.19986 16.9279 3.63597 16.364C3.07207 15.8001 2.77959 15.0676 2.75852 14.3287C2.73766 13.5976 2.72724 13.2321 2.70578 13.147C2.65985 12.9649 2.71322 13.0937 2.61691 12.9324C2.57192 12.8571 2.32082 12.5912 1.81862 12.0595C1.31113 11.5222 1 10.7974 1 10C1 9.20257 1.31113 8.47781 1.81862 7.94048C2.32082 7.40876 2.57192 7.14289 2.61691 7.06755C2.71322 6.90628 2.65985 7.03512 2.70578 6.85299C2.72724 6.7679 2.73766 6.40235 2.75852 5.67126C2.77959 4.93243 3.07207 4.1999 3.63597 3.636C4.19986 3.07211 4.93238 2.77963 5.67121 2.75855C6.40232 2.73769 6.76788 2.72727 6.85296 2.70581C7.0351 2.65988 6.90626 2.71325 7.06753 2.61694C7.14287 2.57195 7.40876 2.32082 7.94047 1.81863C8.4778 1.31113 9.20257 1 10 1C10.7974 1 11.5222 1.31114 12.0595 1.81864C12.5913 2.32084 12.8571 2.57194 12.9325 2.61693C13.0937 2.71324 12.9649 2.65988 13.147 2.70581C13.2321 2.72726 13.5976 2.73769 14.3287 2.75855Z" stroke="#BACC4A" stroke-width="2" stroke-linecap="round" stroke-linejoin="round"/>
</svg>
