<svg width="17" height="17" viewBox="0 0 17 17" fill="none" xmlns="http://www.w3.org/2000/svg">
<path d="M8.5 9.29167C7.62555 9.29167 6.91667 10.0005 6.91667 10.875C6.91667 11.7495 7.62555 12.4583 8.5 12.4583C9.37445 12.4583 10.0833 11.7495 10.0833 10.875C10.0833 10.0005 9.37445 9.29167 8.5 9.29167ZM8.5 9.29167V3.75M5.33333 5.33333H5.34125M11.6667 5.33333H11.6746M13.25 8.5H13.2579M3.75 8.5H3.75792M15.625 8.5C15.625 12.435 12.435 15.625 8.5 15.625C4.56497 15.625 1.375 12.435 1.375 8.5C1.375 4.56497 4.56497 1.375 8.5 1.375C12.435 1.375 15.625 4.56497 15.625 8.5Z" stroke="#BACC4A" stroke-linecap="round" stroke-linejoin="round"/>
</svg>
