<svg width="106" height="58" viewBox="0 0 106 58" fill="none" xmlns="http://www.w3.org/2000/svg">
<g clip-path="url(#clip0_2025_1226)">
<path d="M33.155 49C31.6025 49 29.0915 48.7067 27.458 46.1067C27.107 45.5467 26 43.7333 26 39.76C26 38.2 26.162 34.9733 28.5245 29.7467C29.6045 27.3733 30.644 25.4133 33.6005 20.52C33.7355 20.8533 33.776 21.2133 33.7085 21.5867C33.641 21.96 33.5195 22.3067 33.3305 22.6267C31.7915 25.6667 31.1975 26.36 30.0095 29C28.2545 32.9067 28.3085 35.1867 28.3085 35.92C28.3085 38.24 28.9835 39.8933 29.9555 40.9867C30.914 42.0533 32.4665 42.92 34.8425 42.92C37.0295 42.92 39.1895 42.1333 40.8095 41.2C42.4295 40.2667 44.198 38.8133 45.2645 36.9067C45.4535 36.52 45.521 36.16 45.467 35.84C45.413 35.48 45.2105 35.0133 43.1585 34.4667C42.5645 34.3067 41.9705 34.04 41.4035 33.6533C40.1075 32.7067 39.9185 31.24 39.9185 30.4533C39.9185 28.32 41.282 25.8533 41.9165 24.8133C43.5095 22.1733 45.2375 20.4133 45.6695 19.9867C47.2085 18.5867 48.113 18.0533 48.4235 17.8667C50.408 16.6533 51.1775 16.92 51.515 17.1067C51.569 17.44 51.7985 17.96 52.4735 17.96C53.756 17.96 54.7955 17 55.6055 15.0667C55.7135 14.7467 55.8755 14.6 56.051 14.6267C56.3075 14.96 56.6585 15.1333 57.1175 15.1333C57.212 15.1333 57.7115 15.16 58.103 14.2667C58.3595 13.68 58.3595 13.4267 58.562 12.8933C58.6025 12.7067 58.6835 12.52 58.805 12.2933C58.913 12.08 59.075 11.9867 59.2505 12C59.129 12.32 59.0615 12.68 59.0075 13.0667C58.967 13.4667 58.913 13.84 58.8725 14.2C58.6025 15.56 58.1435 16.6133 57.4955 17.3733C56.8475 18.1333 56.024 18.5333 55.0115 18.5733C54.3635 19.44 53.7425 20.0533 53.1215 20.44C52.5005 20.8267 51.8795 21.0667 51.2585 21.16C50.57 20.9067 49.9355 20.7867 49.3685 20.7867C47.5865 20.7867 45.521 22.5067 45.143 22.84C44.5895 23.32 42.767 25.0533 42.767 26.4933C42.767 26.8267 42.821 27.5333 43.7795 28.16C44.7245 28.7733 45.8855 28.9733 46.142 29.0133C46.358 29.04 47.033 29.12 47.3975 30.2133C47.546 30.64 47.627 31.1067 47.627 32.0667C47.627 35.1467 46.25 38.08 45.5345 39.44C44.333 41.68 42.5375 44.1867 40.202 46.1067C36.746 48.96 33.9785 49 33.155 49Z" fill="#BACC4A"/>
<path d="M58.8992 38.1733C57.9272 41.2267 57.4547 42.1733 56.8877 43.12C55.1327 46.04 53.0537 45.8933 52.7702 45.8933C52.3517 45.8933 51.8657 46 50.5292 46.4533C49.3007 46.8667 48.9767 47.0267 48.2207 47.2533C48.2207 47.04 48.2207 46.68 49.4222 45.9333C56.8337 41.2533 58.4807 36.24 59.0207 34.72C59.2232 34.2133 59.3987 33.6933 59.8172 32.1733C59.8712 31.8533 60.0602 31.3867 60.1817 31.1333C60.2357 31 60.4922 30.5067 60.9242 30.5067C60.7622 30.7733 60.6677 31 60.5057 31.6933C59.8712 34.72 59.3852 36.6 58.8992 38.1733Z" fill="#BACC4A"/>
<path d="M76.7327 9C77.1647 9.16 77.5832 9.33333 77.9747 9.54667C78.3662 9.74667 78.7037 9.98667 79.0007 10.24C79.2977 10.5067 79.5407 10.7867 79.7297 11.1067C79.9187 11.4267 79.9997 11.7733 79.9997 12.16C79.9997 12.5467 79.9052 12.9467 79.7027 13.3467C79.5137 13.76 79.2707 14.1467 78.9737 14.52C78.6902 14.8933 78.3797 15.24 78.0422 15.56C77.7047 15.88 77.4077 16.12 77.1242 16.3067C76.9622 16.1067 76.7327 15.8667 76.4357 15.6133C76.1387 15.3467 75.8012 15.0933 75.4367 14.8533C75.0722 14.6 74.6807 14.3733 74.2487 14.1733C73.8302 13.9733 73.4117 13.8133 72.9932 13.6933C73.7492 12.72 74.3972 11.8933 74.9507 11.2C75.5312 10.5067 76.1117 9.77333 76.7327 9Z" fill="#BACC4A"/>
<path d="M77.6236 24.7733C77.1106 23.88 76.1386 22.8 74.6671 22.8C73.9516 22.8 73.0066 22.9333 72.4936 24.4267C71.2246 27.9867 70.7386 28.7067 70.6711 29.1467C70.4686 31.12 71.9671 31.8 72.1561 31.88C72.3451 31.96 73.8571 32.6267 75.3556 31.28C75.9766 31.4667 76.2601 31.96 76.3816 32.4C76.0441 32.8 74.6131 34.4667 72.2236 34.4667C71.2111 34.4667 69.5371 34.28 68.5786 32.48C68.0791 31.56 67.7551 30.2667 67.7551 28.2133C67.7551 27.4 67.7551 25.2133 68.2411 20.68C68.5786 17.5067 68.7676 16.44 69.1321 13.12C69.2941 12.0267 69.1996 11.4133 68.8621 11.2533C68.5381 12.4533 68.2276 13.48 67.9306 14.3333C67.6336 15.1867 67.2826 16.0667 66.9046 16.9733C66.7831 17.2 66.7021 17.4667 66.6481 17.76C66.5941 18.0533 66.5401 18.4 66.4996 18.7733C65.7031 25.7467 65.3926 27.9733 65.3926 31.92C65.3926 35.76 66.2026 37.3867 66.3241 37.6667C67.5931 40.5733 69.9151 40.56 70.5496 40.56C72.1696 40.56 73.6276 39.7467 74.8561 38.3733C76.3681 36.68 77.2591 34.5067 77.6371 33.44C78.6631 30.6 78.6361 28.7733 78.6361 28.5333C78.6226 27.96 78.5011 26.32 77.6236 24.7733Z" fill="#BACC4A"/>
</g>
<defs>
<clipPath id="clip0_2025_1226">
<rect width="54" height="40" fill="white" transform="translate(26 9)"/>
</clipPath>
</defs>
</svg>
