<svg width="126" height="56" viewBox="0 0 126 56" fill="none" xmlns="http://www.w3.org/2000/svg">
<mask id="path-1-inside-1_58_152" fill="white">
<path d="M60 51.5C60 50.9091 59.9353 50.3239 59.8097 49.7779C59.6841 49.232 59.4999 48.7359 59.2678 48.318C59.0356 47.9002 58.76 47.5687 58.4567 47.3425C58.1534 47.1164 57.8283 47 57.5 47C57.1717 47 56.8466 47.1164 56.5433 47.3425C56.24 47.5687 55.9644 47.9002 55.7322 48.318C55.5001 48.7359 55.3159 49.232 55.1903 49.7779C55.0647 50.3239 55 50.9091 55 51.5L57.5 51.5H60Z"/>
</mask>
<path d="M60 51.5C60 50.9091 59.9353 50.3239 59.8097 49.7779C59.6841 49.232 59.4999 48.7359 59.2678 48.318C59.0356 47.9002 58.76 47.5687 58.4567 47.3425C58.1534 47.1164 57.8283 47 57.5 47C57.1717 47 56.8466 47.1164 56.5433 47.3425C56.24 47.5687 55.9644 47.9002 55.7322 48.318C55.5001 48.7359 55.3159 49.232 55.1903 49.7779C55.0647 50.3239 55 50.9091 55 51.5L57.5 51.5H60Z" stroke="white" stroke-width="2" mask="url(#path-1-inside-1_58_152)"/>
<mask id="path-2-inside-2_58_152" fill="white">
<path d="M71 51.5C71 50.9091 70.9353 50.3239 70.8097 49.7779C70.6841 49.232 70.4999 48.7359 70.2678 48.318C70.0356 47.9002 69.76 47.5687 69.4567 47.3425C69.1534 47.1164 68.8283 47 68.5 47C68.1717 47 67.8466 47.1164 67.5433 47.3425C67.24 47.5687 66.9644 47.9002 66.7322 48.318C66.5001 48.7359 66.3159 49.232 66.1903 49.7779C66.0647 50.3239 66 50.9091 66 51.5L68.5 51.5H71Z"/>
</mask>
<path d="M71 51.5C71 50.9091 70.9353 50.3239 70.8097 49.7779C70.6841 49.232 70.4999 48.7359 70.2678 48.318C70.0356 47.9002 69.76 47.5687 69.4567 47.3425C69.1534 47.1164 68.8283 47 68.5 47C68.1717 47 67.8466 47.1164 67.5433 47.3425C67.24 47.5687 66.9644 47.9002 66.7322 48.318C66.5001 48.7359 66.3159 49.232 66.1903 49.7779C66.0647 50.3239 66 50.9091 66 51.5L68.5 51.5H71Z" stroke="white" stroke-width="2" mask="url(#path-2-inside-2_58_152)"/>
<mask id="path-3-inside-3_58_152" fill="white">
<path d="M82 51.5C82 50.9091 81.9353 50.3239 81.8097 49.7779C81.6841 49.232 81.4999 48.7359 81.2678 48.318C81.0356 47.9002 80.76 47.5687 80.4567 47.3425C80.1534 47.1164 79.8283 47 79.5 47C79.1717 47 78.8466 47.1164 78.5433 47.3425C78.24 47.5687 77.9644 47.9002 77.7322 48.318C77.5001 48.7359 77.3159 49.232 77.1903 49.7779C77.0647 50.3239 77 50.9091 77 51.5L79.5 51.5H82Z"/>
</mask>
<path d="M82 51.5C82 50.9091 81.9353 50.3239 81.8097 49.7779C81.6841 49.232 81.4999 48.7359 81.2678 48.318C81.0356 47.9002 80.76 47.5687 80.4567 47.3425C80.1534 47.1164 79.8283 47 79.5 47C79.1717 47 78.8466 47.1164 78.5433 47.3425C78.24 47.5687 77.9644 47.9002 77.7322 48.318C77.5001 48.7359 77.3159 49.232 77.1903 49.7779C77.0647 50.3239 77 50.9091 77 51.5L79.5 51.5H82Z" stroke="white" stroke-width="2" mask="url(#path-3-inside-3_58_152)"/>
<circle cx="57.5" cy="43.5" r="3" stroke="white"/>
<circle cx="68.5" cy="43.5" r="3" stroke="white"/>
<circle cx="79.5" cy="43.5" r="3" stroke="white"/>
<path d="M0 0L20.5 13.5L98 29.5V32L0 52V0Z" fill="url(#paint0_linear_58_152)" fill-opacity="0.4"/>
<path d="M0 0L20 13V32L0 52V0Z" fill="url(#paint1_linear_58_152)"/>
<line x1="20" y1="51.5" x2="115" y2="51.5" stroke="white"/>
<line x1="90.5947" y1="51.7073" x2="103.595" y2="33.7073" stroke="white"/>
<line x1="103.5" y1="25" x2="103.5" y2="8" stroke="white"/>
<line x1="114.573" y1="51.7393" x2="125.573" y2="33.7393" stroke="white"/>
<line x1="103" y1="33.5" x2="126" y2="33.5" stroke="white"/>
<path d="M90.5 52C90.5 52 90.5 45 90.5 35M90.5 0.701351C90.5 0.701351 90.5 14.3711 90.5 26" stroke="white"/>
<path d="M114.502 27.7168H113.298C114.21 27.1186 114.812 26.0959 114.812 24.9336C114.812 23.0891 113.298 21.5938 111.431 21.5938C110.874 21.5925 110.326 21.7282 109.835 21.989C109.343 22.2497 108.924 22.6274 108.613 23.0888C108.302 22.6274 107.883 22.2497 107.391 21.989C106.9 21.7282 106.352 21.5925 105.795 21.5938C103.928 21.5938 102.414 23.0891 102.414 24.9336C102.414 26.0959 103.016 27.1186 103.928 27.7168H102.724C102.552 27.7168 102.414 27.8543 102.414 28.0235V28.7096L98.4948 27.7168C98.3255 27.7168 98.1875 27.8543 98.1875 28.0235V33.5338C98.1875 33.703 98.3255 33.8399 98.4948 33.8399L102.414 32.8471V33.5338C102.414 33.703 102.552 33.8399 102.724 33.8399H107.69L105.514 38.8496H104.357V39.4063H106.243L108.331 34.3965V38.8496H107.486V39.4063H110.022V38.8496H109.177V34.3965L111.311 39.4063H113.122V38.8496H111.995L109.818 33.8399H114.502C114.672 33.8399 114.812 33.703 114.812 33.5338V28.0235C114.812 27.8543 114.672 27.7168 114.502 27.7168ZM98.751 28.3563L99.3144 28.4988V33.0573L98.751 33.1998V28.3563ZM113.686 28.8301V32.1699H109.177V28.8301H113.686ZM111.431 23.8203C112.053 23.8203 112.558 24.3188 112.558 24.9336C112.558 25.5484 112.053 26.0469 111.431 26.0469C110.808 26.0469 110.304 25.5484 110.304 24.9336C110.304 24.3188 110.808 23.8203 111.431 23.8203ZM108.613 26.7784C108.864 27.1512 109.187 27.4703 109.563 27.7168H107.663C108.039 27.4704 108.362 27.1514 108.613 26.7784ZM105.795 23.8203C106.417 23.8203 106.923 24.3188 106.923 24.9336C106.923 25.5484 106.417 26.0469 105.795 26.0469C105.173 26.0469 104.669 25.5484 104.669 24.9336C104.669 24.3188 105.173 23.8203 105.795 23.8203ZM103.541 29.1086H108.05V30.2218H103.541V29.1086ZM103.541 30.7785H108.05V31.8918H103.541V30.7785ZM113.936 33.2832H103.29C103.118 33.2832 102.978 33.1588 102.978 33.0047C102.978 32.8513 103.118 32.7263 103.29 32.7263H113.936C114.108 32.7263 114.249 32.8513 114.249 33.0047C114.249 33.1588 114.109 33.2832 113.936 33.2832Z" fill="white"/>
<path d="M109.458 29.1085H113.404V31.8917H109.458V29.1085Z" fill="white"/>
<defs>
<linearGradient id="paint0_linear_58_152" x1="49" y1="13.1579" x2="49" y2="52" gradientUnits="userSpaceOnUse">
<stop stop-color="#D9D9D9"/>
<stop offset="1" stop-color="#D9D9D9" stop-opacity="0"/>
</linearGradient>
<linearGradient id="paint1_linear_58_152" x1="3" y1="26" x2="31" y2="26" gradientUnits="userSpaceOnUse">
<stop stop-color="#BACC4A"/>
<stop offset="1" stop-color="#BACC4A" stop-opacity="0"/>
</linearGradient>
</defs>
</svg>
