<svg width="133" height="35" viewBox="0 0 133 35" fill="none" xmlns="http://www.w3.org/2000/svg">
<g clip-path="url(#clip0_2288_664)">
<path d="M72.3028 24.7733C71.7404 23.914 70.9816 23.2013 70.0892 22.6946C70.7645 22.2424 71.3326 21.6473 71.7533 20.9512C72.1695 20.2588 72.3781 19.4126 72.3791 18.4126C72.3898 17.5918 72.2231 16.7784 71.8903 16.0282C71.5744 15.3248 71.1114 14.6975 70.5328 14.1887C69.9244 13.6636 69.2188 13.2635 68.4562 13.0113C67.605 12.7281 66.7128 12.5884 65.816 12.5981H55.2861V34.0066H66.4262C67.3557 34.0183 68.2802 33.868 69.1583 33.5623C69.9384 33.2925 70.6583 32.8724 71.2772 32.3255C71.8714 31.7899 72.3406 31.13 72.6517 30.3925C72.9857 29.6 73.1522 28.7467 73.1405 27.8865C73.1414 26.6667 72.8622 25.629 72.3028 24.7733ZM59.2542 15.9674H65.5108C66.4262 15.9674 67.1387 16.1867 67.6482 16.6254C68.1576 17.0641 68.4119 17.7112 68.411 18.5669C68.411 19.4216 68.1567 20.0942 67.6482 20.5847C67.1396 21.0753 66.4272 21.3196 65.5108 21.3177H59.2542V15.9674ZM68.4562 29.835C67.9787 30.3756 67.2003 30.6458 66.1211 30.6458H59.2542V24.6813H66.1211C67.1796 24.6813 67.9533 24.9818 68.4421 25.5827C68.9326 26.1925 69.1918 26.9564 69.1738 27.7393C69.1738 28.5959 68.9346 29.2916 68.4562 29.8265V29.835Z" fill="white"/>
<path d="M47.4404 33.8233C48.4807 33.4332 49.4308 32.8352 50.2332 32.0658C50.9956 31.3224 51.5934 30.4266 51.9877 29.4367C52.3989 28.4112 52.6067 27.3154 52.5994 26.2103V12.6045H48.6369V26.2103C48.647 26.9134 48.5258 27.6122 48.2795 28.2706C48.0642 28.8457 47.7268 29.3671 47.2907 29.7989C46.8506 30.2254 46.3253 30.5538 45.7495 30.7626C44.4543 31.2097 43.0469 31.2097 41.7517 30.7626C41.1755 30.5539 40.6498 30.2254 40.2091 29.7989C39.7739 29.3664 39.4366 28.8452 39.2203 28.2706C38.9766 27.6102 38.8578 26.9101 38.8699 26.2061V12.6045H34.8962V26.2103C34.8891 27.3152 35.0964 28.4109 35.5064 29.4367C35.9008 30.4266 36.4985 31.3224 37.2609 32.0658C38.06 32.8326 39.005 33.4303 40.0396 33.8233C42.4324 34.6799 45.0476 34.6799 47.4404 33.8233Z" fill="white"/>
<path d="M20.8263 34.0073L25.6802 24.682C25.9627 24.1528 26.2165 23.6533 26.4416 23.1835C26.6667 22.7137 26.8804 22.25 27.0829 21.7925C27.2863 21.334 27.4851 20.8651 27.6791 20.3859C27.8731 19.9067 28.0817 19.4024 28.3049 18.8732H28.4263C28.3849 19.4392 28.3444 19.9741 28.3049 20.4779C28.2625 20.9774 28.2328 21.4614 28.213 21.9297C28.1933 22.3981 28.1777 22.8835 28.1664 23.383C28.1551 23.8825 28.1509 24.4174 28.1509 24.9877V34.0073H32.119V12.6045H27.6946L23.5429 20.7368C23.2603 21.2887 23.0009 21.7986 22.7645 22.2665C22.53 22.7349 22.3068 23.1948 22.0935 23.642C21.8802 24.0891 21.6697 24.549 21.4677 25.0188C21.2657 25.4886 21.0439 25.9867 20.8263 26.516C20.6022 25.9877 20.3884 25.4877 20.185 25.016C19.9816 24.5443 19.773 24.0854 19.5592 23.6391C19.3459 23.192 19.1213 22.7321 18.8882 22.2637C18.6551 21.7953 18.3952 21.2859 18.1098 20.734L13.9581 12.6045H9.53369V34.0073H13.5004V24.9877C13.5004 24.4217 13.4957 23.8868 13.4863 23.383C13.4768 22.8793 13.4613 22.3948 13.4396 21.9297C13.4199 21.4581 13.3893 20.9741 13.3478 20.4779C13.3064 19.9817 13.2659 19.4468 13.2263 18.8732H13.3478C13.5512 19.4024 13.7547 19.9067 13.9581 20.3859C14.1615 20.8651 14.3654 21.334 14.5698 21.7925C14.7718 22.251 14.9865 22.7151 15.2097 23.1835C15.4329 23.6519 15.6886 24.1528 15.9725 24.682L20.8263 34.0073Z" fill="white"/>
<path d="M79.6727 12.6045H75.7046V34.0073H79.6727V12.6045Z" fill="white"/>
<path d="M117.786 21.9368C120.37 21.9368 122.466 19.8378 122.466 17.2487C122.466 14.6595 120.37 12.5605 117.786 12.5605C115.201 12.5605 113.105 14.6595 113.105 17.2487C113.105 19.8378 115.201 21.9368 117.786 21.9368Z" fill="white"/>
<path d="M93.685 21.9368C96.2697 21.9368 98.365 19.8378 98.365 17.2487C98.365 14.6595 96.2697 12.5605 93.685 12.5605C91.1002 12.5605 89.0049 14.6595 89.0049 17.2487C89.0049 19.8378 91.1002 21.9368 93.685 21.9368Z" fill="white"/>
<path d="M105.736 21.9368C108.32 21.9368 110.416 19.8378 110.416 17.2487C110.416 14.6595 108.32 12.5605 105.736 12.5605C103.151 12.5605 101.056 14.6595 101.056 17.2487C101.056 19.8378 103.151 21.9368 105.736 21.9368Z" fill="white"/>
<path d="M93.685 9.91137C96.2697 9.91137 98.365 7.81243 98.365 5.22326C98.365 2.6341 96.2697 0.535156 93.685 0.535156C91.1002 0.535156 89.0049 2.6341 89.0049 5.22326C89.0049 7.81243 91.1002 9.91137 93.685 9.91137Z" fill="white"/>
<path d="M105.736 9.91137C108.32 9.91137 110.416 7.81243 110.416 5.22326C110.416 2.6341 108.32 0.535156 105.736 0.535156C103.151 0.535156 101.056 2.6341 101.056 5.22326C101.056 7.81243 103.151 9.91137 105.736 9.91137Z" fill="white"/>
<path d="M93.685 33.9631C96.2697 33.9631 98.365 31.8642 98.365 29.275C98.365 26.6859 96.2697 24.5869 93.685 24.5869C91.1002 24.5869 89.0049 26.6859 89.0049 29.275C89.0049 31.8642 91.1002 33.9631 93.685 33.9631Z" fill="white"/>
<path d="M105.736 33.9631C108.32 33.9631 110.416 31.8642 110.416 29.275C110.416 26.6859 108.32 24.5869 105.736 24.5869C103.151 24.5869 101.056 26.6859 101.056 29.275C101.056 31.8642 103.151 33.9631 105.736 33.9631Z" fill="white"/>
</g>
<defs>
<clipPath id="clip0_2288_664">
<rect width="114" height="35" fill="white" transform="translate(9)"/>
</clipPath>
</defs>
</svg>
