<svg width="20" height="19" viewBox="0 0 20 19" fill="none" xmlns="http://www.w3.org/2000/svg">
<path d="M2.86328 16.6314L2.12082 16.5253C2.08567 16.7714 2.17472 17.0189 2.35859 17.1862C2.54247 17.3534 2.79727 17.4187 3.03893 17.3605L2.86328 16.6314ZM5.05045 12.0692L4.52025 11.5388L4.52012 11.5389L5.05045 12.0692ZM3.7967 13.4477L3.17448 13.029L3.7967 13.4477ZM2.90085 16.3684L2.15838 16.2624L2.90085 16.3684ZM3.25143 14.5383L2.54311 14.2918L3.25143 14.5383ZM7.14749 14.4505L6.61729 13.9201L6.61716 13.9202L7.14749 14.4505ZM5.98383 15.5233L5.54763 14.9132H5.54763L5.98383 15.5233ZM3.5534 16.4651L3.37775 15.736H3.37775L3.5534 16.4651ZM5.07575 16.0323L5.36857 16.7228H5.36857L5.07575 16.0323ZM16.5215 2.8418L17.0518 2.31147L17.0518 2.31147L16.5215 2.8418ZM16.5215 5.08097L17.0517 5.61143L17.0518 5.6113L16.5215 5.08097ZM14.2823 2.8418L14.8125 3.37226L14.8127 3.37213L14.2823 2.8418ZM10.7914 15.875C10.3771 15.875 10.0414 16.2107 10.0414 16.625C10.0414 17.0392 10.3771 17.375 10.7914 17.375V15.875ZM17.1247 17.375C17.5389 17.375 17.8747 17.0392 17.8747 16.625C17.8747 16.2107 17.5389 15.875 17.1247 15.875V17.375ZM15.9913 4.55051L6.61729 13.9201L7.6777 14.981L17.0517 5.61143L15.9913 4.55051ZM5.58065 12.5997L14.8125 3.37226L13.7521 2.31134L4.52025 11.5388L5.58065 12.5997ZM3.60574 16.7374L3.64331 16.4745L2.15838 16.2624L2.12082 16.5253L3.60574 16.7374ZM3.37775 15.736L2.68763 15.9022L3.03893 17.3605L3.72904 17.1943L3.37775 15.736ZM12.1905 4.93219L14.4266 7.17445L15.4887 6.11526L13.2526 3.87299L12.1905 4.93219ZM4.52012 11.5389C3.87563 12.1834 3.48115 12.5733 3.17448 13.029L4.41893 13.8665C4.62581 13.5591 4.89598 13.2843 5.58078 12.5995L4.52012 11.5389ZM3.64331 16.4745C3.78027 15.5158 3.83794 15.1348 3.95975 14.7848L2.54311 14.2918C2.36254 14.8105 2.28728 15.3601 2.15838 16.2624L3.64331 16.4745ZM3.17448 13.029C2.91065 13.4211 2.69844 13.8455 2.54311 14.2918L3.95975 14.7848C4.07272 14.4603 4.22705 14.1516 4.41893 13.8665L3.17448 13.029ZM6.61716 13.9202C6.03706 14.5003 5.80464 14.7294 5.54763 14.9132L6.42003 16.1334C6.80087 15.8611 7.13161 15.5271 7.67782 14.9808L6.61716 13.9202ZM3.72904 17.1943C4.48002 17.0134 4.93756 16.9055 5.36857 16.7228L4.78293 15.3418C4.49206 15.4652 4.17533 15.5439 3.37775 15.736L3.72904 17.1943ZM5.54763 14.9132C5.3092 15.0836 5.05276 15.2274 4.78293 15.3418L5.36857 16.7228C5.73959 16.5654 6.0922 16.3678 6.42003 16.1334L5.54763 14.9132ZM15.9912 3.37213C16.3166 3.69757 16.3166 4.2252 15.9912 4.55064L17.0518 5.6113C17.9631 4.70008 17.9631 3.22269 17.0518 2.31147L15.9912 3.37213ZM17.0518 2.31147C16.1406 1.40024 14.6632 1.40025 13.752 2.31147L14.8127 3.37213C15.1381 3.04669 15.6657 3.04669 15.9912 3.37213L17.0518 2.31147ZM10.7914 17.375H17.1247V15.875H10.7914V17.375Z" fill="#BACC4A"/>
</svg>
