<svg width="133" height="35" viewBox="0 0 133 35" fill="none" xmlns="http://www.w3.org/2000/svg">
<path d="M13 6.54642C13 6.36374 13.0412 6.23529 13.1237 6.16108C13.2032 6.08972 13.3298 6.05404 13.5035 6.05404H14.9566C15.2657 6.05404 15.4527 6.19819 15.5175 6.48648L15.6588 6.99597C16.0622 6.61634 16.5481 6.31664 17.1163 6.09686C17.6695 5.86999 18.2647 5.7549 18.8653 5.75862C20.1668 5.75862 21.1973 6.22387 21.957 7.15438C22.7137 8.08204 23.0921 9.33794 23.0921 10.9221C23.0921 12.0067 22.9051 12.9558 22.5312 13.7693C22.1543 14.5828 21.6434 15.2064 20.9986 15.6403C20.3498 16.0814 19.5737 16.3122 18.7814 16.2996C18.2308 16.2996 17.7082 16.214 17.2135 16.0427C16.7483 15.887 16.317 15.6489 15.9415 15.3406V19.6349C15.9415 19.8204 15.9047 19.9489 15.8311 20.0202C15.7575 20.0916 15.625 20.1273 15.4336 20.1273H13.5079C13.3313 20.1273 13.2046 20.0916 13.1281 20.0202C13.0456 19.9489 13.0044 19.8204 13.0044 19.6349L13 6.54642ZM17.9158 7.91649C17.2202 7.91699 16.5379 8.10048 15.9415 8.44739V13.6109C16.5342 13.9661 17.219 14.1503 17.9158 14.1418C18.6695 14.1418 19.2231 13.8934 19.5764 13.3968C19.9327 12.8973 20.1108 12.1123 20.1108 11.042C20.1108 9.95447 19.9371 9.1624 19.5897 8.66575C19.2363 8.1691 18.6784 7.92077 17.9158 7.92077V7.91649ZM27.8444 7.544C28.3803 6.96743 28.8867 6.55926 29.3637 6.3195C29.8309 6.07316 30.3557 5.94782 30.8875 5.95557H31.1657C31.3542 5.95557 31.4896 5.99125 31.5721 6.06261C31.6545 6.13397 31.6943 6.26241 31.6913 6.44794V8.09631C31.6913 8.26757 31.6545 8.39173 31.5809 8.4688C31.5073 8.54587 31.3763 8.5844 31.1878 8.5844L30.8257 8.56727C30.2594 8.5275 29.6902 8.56352 29.1341 8.67431C28.6924 8.75994 28.3155 8.86841 28.0034 8.9997V15.5932C28.0034 15.7644 27.9666 15.8886 27.893 15.9657C27.8223 16.0456 27.6913 16.0856 27.4999 16.0856H25.5698C25.3932 16.0856 25.2651 16.0456 25.1856 15.9657C25.1061 15.8886 25.0649 15.7644 25.0619 15.5932V6.54642C25.0619 6.36374 25.1031 6.23529 25.1856 6.16108C25.2651 6.08972 25.3932 6.05404 25.5698 6.05404H27.0185C27.3277 6.05404 27.5161 6.19676 27.5838 6.48219L27.8444 7.544ZM34.5842 4.50415C34.136 4.52326 33.697 4.37632 33.3564 4.09313C33.2008 3.94925 33.0788 3.77464 32.9988 3.58111C32.9188 3.38757 32.8826 3.17964 32.8927 2.97138C32.8927 2.50042 33.0473 2.12935 33.3564 1.85819C33.6963 1.57346 34.1354 1.42495 34.5842 1.44289C35.0936 1.44289 35.5029 1.57989 35.8121 1.85391C36.1212 2.12792 36.2758 2.50042 36.2758 2.97138C36.2859 3.17964 36.2497 3.38757 36.1697 3.58111C36.0897 3.77464 35.9677 3.94925 35.8121 4.09313C35.4715 4.37632 35.0325 4.52326 34.5842 4.50415ZM33.1135 6.54642C33.1135 6.36374 33.1532 6.23529 33.2327 6.16108C33.3181 6.08972 33.4462 6.05404 33.617 6.05404H35.5515C35.7399 6.05404 35.871 6.08972 35.9446 6.16108C36.055 6.26812 36.055 6.36231 36.055 6.54642V15.5932C36.055 15.7644 36.0182 15.8886 35.9446 15.9657C35.871 16.0456 35.7385 16.0856 35.5471 16.0856H33.617C33.4403 16.0856 33.3122 16.0456 33.2327 15.9657C33.1532 15.8886 33.1135 15.7644 33.1135 15.5932V6.54642ZM41.2269 7.01738C41.9395 6.56069 42.5799 6.23672 43.1482 6.04548C43.7223 5.85424 44.3112 5.75862 44.9148 5.75862C46.1221 5.75862 46.9745 6.17821 47.4721 7.01738C48.1552 6.56925 48.8 6.24814 49.4066 6.05404C50.0102 5.85709 50.6344 5.75862 51.2792 5.75862C52.2185 5.75862 52.9473 6.01408 53.4655 6.52501C53.9808 7.03879 54.2384 7.75237 54.2384 8.66575V15.5932C54.2384 15.7644 54.2016 15.8886 54.128 15.9657C54.0544 16.0456 53.9234 16.0841 53.7349 16.0813H51.8004C51.6237 16.0813 51.4971 16.0427 51.4206 15.9657C51.3381 15.8886 51.2969 15.7644 51.2969 15.5932V9.29512C51.2969 8.40458 50.8876 7.9593 50.0691 7.9593C49.3447 7.9593 48.6131 8.12913 47.874 8.4688V15.5932C47.874 15.7644 47.8372 15.8886 47.7636 15.9657C47.69 16.0456 47.5575 16.0841 47.3661 16.0813H45.436C45.2593 16.0813 45.1327 16.0427 45.0562 15.9657C44.9737 15.8886 44.9325 15.7644 44.9325 15.5932V9.29512C44.9325 8.40458 44.5232 7.9593 43.7047 7.9593C42.9538 7.9593 42.2148 8.13485 41.4875 8.48593V15.5932C41.4875 15.7644 41.4507 15.8886 41.3771 15.9657C41.3035 16.0456 41.1724 16.0841 40.984 16.0813H39.0495C38.8758 16.0813 38.7492 16.0427 38.6697 15.9657C38.5902 15.8886 38.5504 15.7644 38.5504 15.5932V6.54642C38.5504 6.36374 38.5902 6.23529 38.6697 6.16108C38.7492 6.08687 38.8758 6.05119 39.0495 6.05404H40.5026C40.8088 6.05404 40.9972 6.19819 41.0679 6.48648L41.2269 7.01738ZM60.6028 11.9839C59.9322 11.9943 59.2629 11.9223 58.6109 11.7698C58.6904 12.6404 58.9628 13.2683 59.428 13.6537C59.8903 14.0304 60.5911 14.2188 61.5303 14.2188C61.9043 14.2188 62.2709 14.196 62.6301 14.1503C63.1696 14.071 63.7036 13.9595 64.2289 13.8164L64.3305 13.8078C64.5602 13.8078 64.675 13.9577 64.675 14.2574V15.1608C64.675 15.3691 64.6456 15.5161 64.5867 15.6017C64.4938 15.7087 64.3711 15.7875 64.2333 15.8287C63.2337 16.1931 62.1743 16.3788 61.1063 16.3767C59.4427 16.3767 58.1648 15.9314 57.2727 15.0409C56.3776 14.156 55.93 12.8816 55.93 11.2175C55.93 9.51348 56.3864 8.17908 57.2992 7.21432C58.2119 6.24385 59.481 5.75862 61.1063 5.75862C62.3548 5.75862 63.3323 6.05262 64.039 6.64061C64.3872 6.93041 64.6634 7.29272 64.8469 7.70046C65.0304 8.10821 65.1166 8.55087 65.099 8.99542C65.099 9.98016 64.7192 10.7223 63.9595 11.2218C63.1998 11.7299 62.0809 11.9867 60.6028 11.9839ZM60.8855 7.74523C59.5988 7.74523 58.8538 8.5159 58.6507 10.0572C59.1895 10.1628 59.7872 10.2156 60.4438 10.2156C61.1269 10.2156 61.6231 10.1143 61.9323 9.91166C62.2414 9.709 62.396 9.39788 62.396 8.9783C62.396 8.15054 61.8925 7.73809 60.8855 7.74095V7.74523ZM73.9058 16.077C73.7933 16.0819 73.6809 16.0659 73.5746 16.0299C73.4855 16.0012 73.4081 15.9457 73.3537 15.8715C73.284 15.7779 73.2275 15.6757 73.1859 15.5675L69.7542 6.83327L69.6526 6.56354C69.63 6.49411 69.6166 6.42217 69.6128 6.34947C69.6128 6.14966 69.7468 6.04976 70.0148 6.04976H72.0199C72.2349 6.04976 72.3924 6.08972 72.4925 6.16964C72.5926 6.24671 72.6692 6.37801 72.7222 6.56354L74.7892 13.5081L76.8959 6.56354C76.9347 6.41466 77.014 6.27861 77.1256 6.16964C77.2257 6.09258 77.3832 6.05404 77.5982 6.05404H79.5415C79.8094 6.05404 79.9434 6.15109 79.9434 6.34519C79.9396 6.41789 79.9262 6.48983 79.9037 6.55926L79.8065 6.83756L76.3747 15.5675C76.3314 15.6744 76.2735 15.7752 76.2025 15.8672C76.1523 15.9409 76.0798 15.9977 75.9949 16.0299C75.8841 16.0661 75.767 16.0807 75.6504 16.0727L73.9058 16.077ZM82.8275 4.50415C82.3801 4.52098 81.9429 4.37255 81.6041 4.08884C81.4496 3.94593 81.3283 3.77271 81.2483 3.58075C81.1683 3.38879 81.1315 3.1825 81.1403 2.97566C81.1403 2.50469 81.2949 2.13078 81.6041 1.85391C81.9435 1.57175 82.3807 1.42487 82.8275 1.44289C83.3339 1.44289 83.7417 1.57989 84.0509 1.85391C84.3571 2.12792 84.5102 2.50042 84.5102 2.97138C84.5102 3.44234 84.3571 3.81483 84.0509 4.08884C83.7121 4.37255 83.2749 4.52098 82.8275 4.50415ZM81.8647 16.077C81.688 16.077 81.5614 16.037 81.4848 15.9571C81.4024 15.88 81.3612 15.7559 81.3612 15.5846V6.54213C81.3612 6.35946 81.4024 6.23101 81.4848 6.1568C81.5643 6.08829 81.6909 6.05404 81.8647 6.05404H83.7903C83.9758 6.05404 84.1069 6.08972 84.1834 6.16108C84.2541 6.23244 84.2894 6.36089 84.2894 6.54642V15.5846C84.2894 15.7559 84.2541 15.88 84.1834 15.9571C84.1069 16.037 83.9744 16.077 83.7859 16.077H81.8647ZM90.4683 16.2911C89.6608 16.309 88.868 16.0798 88.2026 15.636C87.5423 15.176 87.0306 14.5434 86.7274 13.8121C86.3708 12.9556 86.1965 12.0382 86.2151 11.1148C86.2151 9.49065 86.6096 8.19193 87.3987 7.21861C87.7632 6.75131 88.2375 6.37507 88.7821 6.12114C89.3268 5.86722 89.926 5.74294 90.5302 5.75862C91.5232 5.73837 92.4931 6.04977 93.2773 6.64061V2.05086C93.2773 1.86818 93.3171 1.73974 93.3966 1.66552C93.4761 1.59702 93.6042 1.56134 93.7808 1.55849H95.7065C95.892 1.55849 96.0215 1.59417 96.0952 1.66552C96.1688 1.73688 96.2056 1.86533 96.2056 2.05086V15.5846C96.2056 15.7559 96.1688 15.88 96.0952 15.9571C96.0215 16.037 95.892 16.077 95.7065 16.077H94.0988C93.9675 16.0832 93.8376 16.0487 93.7278 15.9785C93.6287 15.8902 93.562 15.773 93.5379 15.6446L93.4187 15.195C92.6176 15.9152 91.5607 16.3078 90.4683 16.2911ZM91.4312 14.1332C92.0886 14.1297 92.7306 13.9392 93.2773 13.5852V8.40458C92.6727 8.07038 91.9857 7.90168 91.2898 7.91649C90.5832 7.91649 90.0561 8.17338 89.7087 8.68716C89.3583 9.20664 89.1846 9.98872 89.1875 11.0334C89.1875 12.0809 89.3701 12.8602 89.7352 13.3711C90.1062 13.8792 90.6715 14.1332 91.4312 14.1332ZM102.861 11.9496C102.117 11.9496 101.469 11.8783 100.918 11.7356C100.998 12.5976 101.263 13.2141 101.713 13.5852C102.167 13.9562 102.851 14.1418 103.767 14.1418C104.135 14.1418 104.491 14.1189 104.836 14.0733C105.363 13.9954 105.885 13.8867 106.399 13.7479L106.496 13.7393C106.717 13.7393 106.828 13.8863 106.828 14.1803V15.0666C106.828 15.2721 106.798 15.4162 106.739 15.499C106.649 15.6024 106.532 15.6795 106.399 15.7216C105.427 16.0832 104.393 16.2662 103.352 16.2611C101.729 16.2611 100.484 15.8244 99.6152 14.951C98.7437 14.0775 98.3079 12.8273 98.3079 11.2004C98.3079 9.53061 98.7525 8.2219 99.6417 7.27427C100.534 6.32378 101.771 5.84853 103.352 5.84853C104.571 5.84853 105.523 6.13825 106.209 6.71767C106.549 7.00294 106.818 7.35835 106.996 7.75773C107.175 8.15711 107.26 8.5903 107.243 9.02539C107.243 9.9873 106.873 10.7151 106.134 11.2089C105.392 11.7027 104.298 11.9496 102.861 11.9496ZM103.14 7.79661C101.88 7.79661 101.152 8.553 100.958 10.0658C101.482 10.1685 102.065 10.2199 102.707 10.2199C103.369 10.2199 103.854 10.12 104.16 9.92022C104.46 9.72327 104.61 9.41929 104.61 9.00827C104.61 8.19479 104.12 7.78947 103.14 7.79232V7.79661ZM113.925 16.3724C112.335 16.3724 111.091 15.9043 110.193 14.9681C109.298 14.0347 108.85 12.7303 108.85 11.0548C108.85 9.3936 109.298 8.09488 110.193 7.15867C111.091 6.2253 112.335 5.75862 113.925 5.75862C116.31 5.75862 116.761 6.2253 117.657 7.15867C118.552 8.09488 119 9.3936 119 11.0548C119 12.7274 118.552 14.0319 117.657 14.9681C116.759 15.9043 115.515 16.3724 113.925 16.3724ZM113.925 14.1717C115.33 14.1717 116.032 13.1328 116.032 11.0548C116.032 8.98829 115.33 7.95502 113.925 7.95502C112.521 7.95502 111.818 8.98829 111.818 11.0548C111.818 13.1356 112.521 14.1746 113.925 14.1717ZM83.6976 22.2466C85.4863 20.9365 87.8669 20.4998 89.8367 20.4998C91.6829 20.4998 93.1758 20.8851 93.4938 21.2918C94.1562 22.1481 93.3215 28.0737 90.0708 30.8995C89.5762 31.3362 89.0992 31.1007 89.32 30.527C90.0532 28.6346 91.6873 24.3788 90.91 23.347C90.1371 22.3108 85.7955 22.8546 83.8433 23.0986C83.543 23.1329 83.3708 23.013 83.3487 22.8375V22.739C83.3663 22.5848 83.4812 22.405 83.6976 22.2466ZM38.7182 21.5102C38.7334 21.4009 38.7895 21.3008 38.8758 21.229C38.9621 21.1571 39.0727 21.1185 39.1864 21.1206C39.3042 21.1206 39.4352 21.1605 39.5795 21.2405C47.796 26.1803 57.268 28.8071 66.9363 28.8272C73.6497 28.8272 81.0255 27.3715 87.8095 24.3617C88.8342 23.9121 89.691 25.0638 88.6928 25.8431C82.6376 30.5099 73.8572 32.9931 66.3003 32.9931C55.7136 32.9931 46.1736 28.9 38.9567 22.0882C38.8315 21.9795 38.7476 21.8333 38.7182 21.6729V21.5102Z" fill="#090E21"/>
</svg>
