<svg width="106" height="58" viewBox="0 0 106 58" fill="none" xmlns="http://www.w3.org/2000/svg">
<path d="M38.2189 50.8304C37.5642 50.5685 37.0108 49.088 37.0108 47.5981C37.0108 46.3252 37.1318 46.0153 37.9442 45.2077C39.3217 43.8383 40.7781 43.6364 49.2793 43.6364C55.8755 43.6364 56.8619 43.5753 58.5277 43.0638C61.984 42.0026 64.013 38.8378 63.9873 34.5483C63.9715 31.9171 63.2517 30.3606 61.5248 29.2235C60.4702 28.5291 60.026 28.4314 57.5308 28.3446L54.7234 28.247V30.74C54.7234 34.531 54.113 36.326 52.1692 38.2514C50.2612 40.1412 49.1945 40.5123 45.6706 40.5123C41.4679 40.5123 39.0221 39.2563 37.6909 36.4144C36.8279 34.572 36.7642 31.5655 37.5515 29.8421C38.1421 28.5495 39.8178 27.0397 41.2247 26.5327L42.1531 26.1981V21.4271V16.6561H52.7236H63.294V17.7921V18.9281H59.0087H54.7234V22.6202V26.3122L58.2231 26.3138C60.1479 26.3147 62.2016 26.4476 62.7869 26.6092C64.494 27.0805 66.1928 28.5659 67.1479 30.4224C67.9203 31.9238 68.007 32.3566 67.9996 34.6702C67.9824 40.0093 65.834 42.8946 60.3147 44.9912C59.4091 45.3352 57.349 45.4727 51.0095 45.612C42.0444 45.8091 41.3758 45.9293 41.7135 47.2825C42.1961 49.2164 42.2011 49.6274 41.7505 50.311C41.3564 50.9089 41.0707 51.0169 39.9325 50.998C39.1897 50.9857 38.4186 50.9102 38.2189 50.8304ZM47.0991 37.8962C48.6672 37.4291 49.9932 36.045 50.396 34.4549C50.5763 33.7431 50.7238 32.0671 50.7238 30.7305V28.3002L46.9384 28.3064C43.8707 28.3115 42.9364 28.4121 42.0103 28.837C40.4785 29.5398 39.6861 30.4551 39.2788 31.9922C38.6773 34.2625 39.9227 36.943 41.9961 37.8408C43.0967 38.3174 45.594 38.3445 47.0991 37.8962ZM50.7238 22.6202V18.9281H47.4384H44.153V22.6202V26.3122H47.4384H50.7238V22.6202ZM50.4161 11.5659C49.7979 10.9513 49.581 10.4663 49.581 9.69803C49.581 8.25507 50.8436 7 52.2951 7C54.6715 7 55.9301 9.98302 54.2559 11.6473C53.1735 12.7233 51.5457 12.6888 50.4161 11.5659Z" fill="#BACC4A"/>
</svg>
