<svg width="106" height="58" viewBox="0 0 106 58" fill="none" xmlns="http://www.w3.org/2000/svg">
<path d="M62.9496 29.9218C58.1478 27.0551 55.747 23.0776 55.747 17.9892C55.747 15.0508 56.6428 12.6858 58.4345 10.8941C60.2262 9.03071 62.5554 8.09906 65.4221 8.09906C69.2921 8.09906 72.338 9.78324 74.5597 13.1516C76.8531 16.4483 77.9997 20.4975 77.9997 25.2992C77.9997 32.896 75.4197 38.9161 70.2597 43.3596C65.4579 47.3729 59.5812 49.3795 52.6294 49.3795C45.6777 49.3795 39.8368 47.4445 35.1067 43.5745C30.4483 39.6328 28.1191 34.0785 28.1191 26.9118C28.1191 22.0384 29.3733 17.7025 31.8817 13.9041C34.3901 10.0341 37.6868 8.09906 41.7718 8.09906C44.7818 8.09906 47.0035 9.03071 48.4369 10.8941C49.9419 12.7574 50.6944 15.0149 50.6944 17.6666C50.6944 20.2467 49.7986 22.3608 48.0069 24.0092C46.2152 25.6576 44.1727 26.4818 41.8793 26.4818C39.5859 26.4818 37.6868 25.6934 36.1817 24.1167C34.6767 22.5401 33.9242 20.0675 33.9242 16.6991C32.4192 19.2792 31.6667 22.0742 31.6667 25.0842C31.6667 30.8893 33.4942 35.3686 37.1493 38.5219C40.8043 41.6753 45.5702 43.2519 51.4469 43.2519C59.0437 43.2519 64.8129 41.7111 68.7546 38.6294C72.6964 35.5477 74.6672 31.2118 74.6672 25.6218C74.6672 22.2534 74.058 19.4225 72.8397 17.1291C71.263 14.1908 69.0771 12.7216 66.2821 12.7216C64.2754 12.7216 62.6987 13.4383 61.552 14.8716C60.4054 16.305 59.832 18.2758 59.832 20.7842C59.832 23.2926 61.0862 25.4784 63.5946 27.3417C66.1029 29.1335 67.3571 30.4593 67.3571 31.3193C67.3571 31.6776 67.178 32.1435 66.8196 32.7169C66.4613 33.2185 66.0671 33.4694 65.6371 33.4694H43.2768C42.8468 33.4694 42.4168 33.326 41.9868 33.0393C41.5568 32.681 41.3418 32.3227 41.3418 31.9644C41.3418 30.746 41.7718 30.1368 42.6318 30.1368L62.9496 29.9218ZM41.9868 22.3968C43.4202 22.3968 44.6385 21.8951 45.6419 20.8917C46.7169 19.8167 47.2544 18.5625 47.2544 17.1291C47.2544 15.6241 46.7169 14.2624 45.6419 13.0441C44.5668 11.7541 43.3127 11.1091 41.8793 11.1091C40.5176 11.1091 39.2634 11.7182 38.1168 12.9366C37.0417 14.1549 36.5042 15.5166 36.5042 17.0217C36.5042 18.5267 37.0417 19.8167 38.1168 20.8917C39.2634 21.8951 40.5535 22.3968 41.9868 22.3968Z" fill="#BACC4A"/>
</svg>
