<svg width="49" height="48" viewBox="0 0 49 48" fill="none" xmlns="http://www.w3.org/2000/svg">
<path d="M26.5 40V36C26.5 30.4772 22.0228 26 16.5 26C10.9772 26 6.5 30.4772 6.5 36V40H26.5ZM26.5 40H42.5V38C42.5 32.109 38.0228 28 32.5 28C29.6733 28 27.1206 29.251 25.3019 31.2622M22.5 14C22.5 17.3137 19.8137 20 16.5 20C13.1863 20 10.5 17.3137 10.5 14C10.5 10.6863 13.1863 8 16.5 8C19.8137 8 22.5 10.6863 22.5 14ZM36.5 18C36.5 20.2091 34.7091 22 32.5 22C30.2909 22 28.5 20.2091 28.5 18C28.5 15.7909 30.2909 14 32.5 14C34.7091 14 36.5 15.7909 36.5 18Z" stroke="#BACC4A" stroke-width="2.5" stroke-linecap="round" stroke-linejoin="round"/>
</svg>
