<svg width="19" height="19" viewBox="0 0 19 19" fill="none" xmlns="http://www.w3.org/2000/svg">
<path d="M13.4582 11.0832V15.8332M11.0832 13.4582H15.8332M12.9832 7.9165H13.9332C14.5982 7.9165 14.9308 7.9165 15.1848 7.78707C15.4082 7.67322 15.5899 7.49156 15.7037 7.26812C15.8332 7.0141 15.8332 6.68157 15.8332 6.0165V5.0665C15.8332 4.40144 15.8332 4.06891 15.7037 3.81489C15.5899 3.59145 15.4082 3.40978 15.1848 3.29593C14.9308 3.1665 14.5982 3.1665 13.9332 3.1665H12.9832C12.3181 3.1665 11.9856 3.1665 11.7316 3.29593C11.5081 3.40978 11.3264 3.59145 11.2126 3.81489C11.0832 4.06891 11.0832 4.40144 11.0832 5.0665V6.0165C11.0832 6.68157 11.0832 7.0141 11.2126 7.26812C11.3264 7.49156 11.5081 7.67322 11.7316 7.78707C11.9856 7.9165 12.3181 7.9165 12.9832 7.9165ZM5.0665 7.9165H6.0165C6.68157 7.9165 7.0141 7.9165 7.26812 7.78707C7.49156 7.67322 7.67322 7.49156 7.78707 7.26812C7.9165 7.0141 7.9165 6.68157 7.9165 6.0165V5.0665C7.9165 4.40144 7.9165 4.06891 7.78707 3.81489C7.67322 3.59145 7.49156 3.40978 7.26812 3.29593C7.0141 3.1665 6.68157 3.1665 6.0165 3.1665H5.0665C4.40144 3.1665 4.06891 3.1665 3.81489 3.29593C3.59145 3.40978 3.40978 3.59145 3.29593 3.81489C3.1665 4.06891 3.1665 4.40144 3.1665 5.0665V6.0165C3.1665 6.68157 3.1665 7.0141 3.29593 7.26812C3.40978 7.49156 3.59145 7.67322 3.81489 7.78707C4.06891 7.9165 4.40144 7.9165 5.0665 7.9165ZM5.0665 15.8332H6.0165C6.68157 15.8332 7.0141 15.8332 7.26812 15.7037C7.49156 15.5899 7.67322 15.4082 7.78707 15.1848C7.9165 14.9308 7.9165 14.5982 7.9165 13.9332V12.9832C7.9165 12.3181 7.9165 11.9856 7.78707 11.7316C7.67322 11.5081 7.49156 11.3264 7.26812 11.2126C7.0141 11.0832 6.68157 11.0832 6.0165 11.0832H5.0665C4.40144 11.0832 4.06891 11.0832 3.81489 11.2126C3.59145 11.3264 3.40978 11.5081 3.29593 11.7316C3.1665 11.9856 3.1665 12.3181 3.1665 12.9832V13.9332C3.1665 14.5982 3.1665 14.9308 3.29593 15.1848C3.40978 15.4082 3.59145 15.5899 3.81489 15.7037C4.06891 15.8332 4.40144 15.8332 5.0665 15.8332Z" stroke="#BACC4A" stroke-width="1.5" stroke-linecap="round" stroke-linejoin="round"/>
</svg>
