<svg width="73" height="34" viewBox="0 0 73 34" fill="none" xmlns="http://www.w3.org/2000/svg">
<path d="M18.8147 5.44584C19.9868 3.97986 20.7821 2.01146 20.5724 0C18.8566 0.0853141 16.7629 1.13192 15.5508 2.59906C14.4624 3.85543 13.4991 5.90624 13.7502 7.83338C15.6762 8.00045 17.6004 6.8707 18.8147 5.44584Z" fill="white"/>
<path d="M20.5506 8.2094C17.7536 8.04279 15.3755 9.79683 14.0398 9.79683C12.7033 9.79683 10.6579 8.29336 8.44565 8.33388C5.56623 8.37617 2.89446 10.0042 1.43327 12.5936C-1.57213 17.7736 0.640146 25.4573 3.56275 29.6761C4.98203 31.7633 6.6925 34.0615 8.94632 33.9789C11.0758 33.8953 11.9105 32.6 14.4989 32.6C17.0855 32.6 17.8373 33.9789 20.0915 33.9371C22.4292 33.8953 23.8906 31.8489 25.3099 29.7597C26.938 27.3804 27.6046 25.083 27.6465 24.9569C27.6046 24.9151 23.1389 23.202 23.0975 18.065C23.0553 13.7638 26.6035 11.7179 26.7705 11.591C24.7668 8.62752 21.636 8.29336 20.5506 8.2094Z" fill="white"/>
<path d="M42.2004 2.33105V8.39738H47.0533V12.2797H42.2004V26.6453C42.2004 28.8532 43.171 29.8966 45.2822 29.8966C45.816 29.8966 46.7138 29.8242 47.029 29.7756V33.6579C46.4952 33.8036 45.3065 33.8765 44.2145 33.8765C39.2883 33.8765 37.3471 31.9592 37.3471 27.082V12.2797H33.6587V8.39738H37.3471V2.33105H42.2004Z" fill="white"/>
<path d="M63.8274 33.7309H58.7074L49.5107 8.39746H54.6065L61.231 28.8533H61.3281L67.9526 8.39746H73.0001L63.8274 33.7309Z" fill="white"/>
</svg>
