<svg width="13" height="16" viewBox="0 0 13 16" fill="none" xmlns="http://www.w3.org/2000/svg">
<path d="M0.958008 3.90833C0.958008 3.02158 0.958008 2.57821 1.13058 2.23951C1.28238 1.94159 1.5246 1.69937 1.82252 1.54757C2.16122 1.375 2.60459 1.375 3.49134 1.375H9.50801C10.3948 1.375 10.8381 1.375 11.1768 1.54757C11.4748 1.69937 11.717 1.94159 11.8688 2.23951C12.0413 2.57821 12.0413 3.02158 12.0413 3.90833V13.1636C12.0413 13.959 12.0413 14.3566 11.8764 14.5703C11.7328 14.7564 11.5139 14.8691 11.279 14.8778C11.0092 14.8878 10.6856 14.6566 10.0384 14.1944L6.49967 11.6667L2.96091 14.1944C2.31372 14.6566 1.99013 14.8878 1.72034 14.8778C1.48545 14.8691 1.26658 14.7564 1.12296 14.5703C0.958008 14.3566 0.958008 13.959 0.958008 13.1636V3.90833Z" stroke="#BACC4A" stroke-width="1.5" stroke-linecap="round" stroke-linejoin="round"/>
</svg>
