<svg width="15" height="15" viewBox="0 0 15 15" fill="none" xmlns="http://www.w3.org/2000/svg">
<path d="M11.4582 9.08366V13.8337M9.08317 11.4587H13.8332M10.9832 5.91699H11.9332C12.5982 5.91699 12.9308 5.91699 13.1848 5.78756C13.4082 5.67371 13.5899 5.49205 13.7037 5.26861C13.8332 5.01459 13.8332 4.68205 13.8332 4.01699V3.06699C13.8332 2.40193 13.8332 2.0694 13.7037 1.81538C13.5899 1.59194 13.4082 1.41027 13.1848 1.29642C12.9308 1.16699 12.5982 1.16699 11.9332 1.16699H10.9832C10.3181 1.16699 9.98558 1.16699 9.73156 1.29642C9.50811 1.41027 9.32645 1.59194 9.2126 1.81538C9.08317 2.0694 9.08317 2.40193 9.08317 3.06699V4.01699C9.08317 4.68205 9.08317 5.01459 9.2126 5.26861C9.32645 5.49205 9.50811 5.67371 9.73156 5.78756C9.98558 5.91699 10.3181 5.91699 10.9832 5.91699ZM3.0665 5.91699H4.0165C4.68157 5.91699 5.0141 5.91699 5.26812 5.78756C5.49156 5.67371 5.67322 5.49205 5.78707 5.26861C5.9165 5.01459 5.9165 4.68205 5.9165 4.01699V3.06699C5.9165 2.40193 5.9165 2.0694 5.78707 1.81538C5.67322 1.59194 5.49156 1.41027 5.26812 1.29642C5.0141 1.16699 4.68157 1.16699 4.0165 1.16699H3.0665C2.40144 1.16699 2.06891 1.16699 1.81489 1.29642C1.59145 1.41027 1.40978 1.59194 1.29593 1.81538C1.1665 2.0694 1.1665 2.40193 1.1665 3.06699V4.01699C1.1665 4.68205 1.1665 5.01459 1.29593 5.26861C1.40978 5.49205 1.59145 5.67371 1.81489 5.78756C2.06891 5.91699 2.40144 5.91699 3.0665 5.91699ZM3.0665 13.8337H4.0165C4.68157 13.8337 5.0141 13.8337 5.26812 13.7042C5.49156 13.5904 5.67322 13.4087 5.78707 13.1853C5.9165 12.9313 5.9165 12.5987 5.9165 11.9337V10.9837C5.9165 10.3186 5.9165 9.98607 5.78707 9.73204C5.67322 9.5086 5.49156 9.32694 5.26812 9.21309C5.0141 9.08366 4.68157 9.08366 4.0165 9.08366H3.0665C2.40144 9.08366 2.06891 9.08366 1.81489 9.21309C1.59145 9.32694 1.40978 9.5086 1.29593 9.73204C1.1665 9.98607 1.1665 10.3186 1.1665 10.9837V11.9337C1.1665 12.5987 1.1665 12.9313 1.29593 13.1853C1.40978 13.4087 1.59145 13.5904 1.81489 13.7042C2.06891 13.8337 2.40144 13.8337 3.0665 13.8337Z" stroke="black" stroke-width="1.5" stroke-linecap="round" stroke-linejoin="round"/>
</svg>
