<svg width="15" height="16" viewBox="0 0 15 16" fill="none" xmlns="http://www.w3.org/2000/svg">
<path d="M1.66699 3.66667C1.66699 2.73325 1.66699 2.26654 1.84865 1.91002C2.00844 1.59641 2.2634 1.34144 2.57701 1.18166C2.93353 1 3.40024 1 4.33366 1H10.667C11.6004 1 12.0671 1 12.4236 1.18166C12.7372 1.34144 12.9922 1.59641 13.152 1.91002C13.3337 2.26654 13.3337 2.73325 13.3337 3.66667V13.4091C13.3337 14.2463 13.3337 14.6649 13.16 14.8898C13.0089 15.0857 12.7785 15.2043 12.5312 15.2134C12.2472 15.224 11.9066 14.9807 11.2253 14.4941L7.50033 11.8333L3.77531 14.4941C3.09406 14.9807 2.75344 15.224 2.46945 15.2134C2.22219 15.2043 1.9918 15.0857 1.84063 14.8898C1.66699 14.6649 1.66699 14.2463 1.66699 13.4091V3.66667Z" stroke="black" stroke-width="1.5" stroke-linecap="round" stroke-linejoin="round"/>
</svg>
