<svg width="124" height="35" viewBox="0 0 124 35" fill="none" xmlns="http://www.w3.org/2000/svg">
<g clip-path="url(#clip0_2288_656)">
<path d="M112.77 19.2899C114.123 19.2899 115.26 19.7803 115.979 20.8095H116.012V19.5355H117.75V28.5854H116.012V27.1805H115.979C115.326 28.2582 114.156 28.814 112.836 28.814C110.13 28.814 107.924 26.821 107.924 24.2075C107.924 21.3161 110.046 19.2899 112.77 19.2899ZM85.1386 19.2899C87.6948 19.2899 90.1014 21.2506 90.0683 24.1259C90.0345 26.5908 87.8814 28.9025 84.8307 28.8109C82.2438 28.734 80.0451 26.5608 80.075 24.0312C80.1081 21.3022 82.3194 19.2899 85.1386 19.2899ZM99.1426 19.2899C100.681 19.2899 101.934 20.3361 101.984 21.9365H100.246C100.162 21.2837 99.7781 20.8426 99.0592 20.8426C98.3906 20.8426 97.9732 21.2837 97.9732 21.8057C97.9732 22.5739 98.7764 22.8026 99.6947 23.0805C100.998 23.4723 102.201 24.2398 102.201 25.9226C102.201 27.6701 100.897 28.814 99.093 28.814C97.422 28.814 95.817 27.7032 95.817 25.6116H97.5558C97.6393 26.707 98.2071 27.2621 99.1261 27.2621C99.9286 27.2621 100.463 26.7555 100.463 26.0204C100.463 25.3999 99.979 24.9919 98.8922 24.6486C96.6195 23.9457 96.2352 22.9819 96.2352 21.9527C96.2352 20.3515 97.622 19.2899 99.1426 19.2899ZM70.2549 16.4971C71.2149 16.4971 71.9929 17.2576 71.9929 18.196V20.4993H72.0267C72.578 19.6987 73.4639 19.2907 74.6168 19.2907C76.8226 19.2907 78.4771 20.6625 78.4771 23.1459V28.5854H76.7391V23.6686C76.7391 21.7248 75.9705 20.8426 74.4333 20.8426C72.9119 20.8426 71.9929 21.9204 71.9929 23.6848V28.5854H70.2549L70.2549 16.4971ZM93.7782 16.4971V19.5355H95.2997V21.0874H93.7774V28.5854C92.8183 28.5854 92.0394 27.8248 92.0394 26.8864V21.0874H91.322V19.5355H92.0394V16.4971H93.7774H93.7782ZM105.851 16.4971V19.5355H107.372V21.0874H105.851V28.5854C104.891 28.5854 104.113 27.8248 104.113 26.8864V21.0874H103.395V19.5355H104.113V16.4971H105.851H105.851ZM124 19.2907V21.0382C122.496 21.0874 121.727 21.985 121.727 23.5054V26.8864C121.727 27.8248 120.949 28.5854 119.989 28.5854V19.5355H121.611V20.3515H121.644C122.061 19.748 122.78 19.3561 124 19.2907ZM85.0551 20.8426C83.062 20.8426 81.3759 22.7325 81.9138 24.8387C82.2792 26.2667 83.6108 27.3013 85.1165 27.2613C86.8939 27.2128 88.3295 25.8248 88.3295 24.0281C88.3295 22.2629 86.8758 20.8426 85.0551 20.8426ZM112.82 20.8426C110.985 20.8426 109.505 22.4623 109.675 24.3761C109.816 25.9542 111.135 27.2297 112.754 27.2613C114.59 27.2975 116.045 25.8125 116.045 24.0766C116.045 22.3122 114.741 20.8426 112.82 20.8426Z" fill="white"/>
<path d="M46.6461 22.6589C45.7327 22.8635 43.3285 22.9813 43.3285 22.9813L43.024 23.9115C43.024 23.9115 44.2229 23.8123 45.0983 23.8991C45.0983 23.8991 45.3838 23.8681 45.4155 24.2153C45.4282 24.5378 45.3901 24.885 45.3901 24.885C45.3901 24.885 45.3711 25.0959 45.0666 25.1455C44.7367 25.2013 42.4785 25.2819 42.4785 25.2819L42.1105 26.4911C42.1105 26.4911 41.9773 26.7702 42.2818 26.6895C42.5673 26.6151 44.9334 26.1811 45.2442 26.2431C45.5741 26.3237 45.942 26.7516 45.8342 27.1484C45.7073 27.6321 43.3475 29.108 41.9075 29.0025C41.9075 29.0025 41.1527 29.0521 40.512 28.0538C39.9157 27.105 40.7403 25.3005 40.7403 25.3005C40.7403 25.3005 40.3661 24.4572 40.6388 24.1781C40.6388 24.1781 40.8038 24.0355 41.2732 23.9983L41.8504 22.8263C41.8504 22.8263 41.1907 22.8697 40.7974 22.3984C40.4295 21.9457 40.4041 21.7411 40.6832 21.6171C40.9814 21.4745 43.7281 20.9846 45.6185 21.0466C45.6185 21.0466 46.2782 20.9846 46.8428 22.1008C46.8365 22.1008 47.1156 22.5534 46.6461 22.6589ZM39.5351 27.1608C39.294 27.7189 38.6533 28.3142 37.8604 27.9422C37.0738 27.5701 35.8241 25.0711 35.8241 25.0711C35.8241 25.0711 35.3483 24.1409 35.2595 24.1595C35.2595 24.1595 35.158 23.9797 35.0946 24.9967C35.0312 26.0136 35.1073 27.9918 34.695 28.3018C34.3017 28.6119 33.8259 28.4878 33.5785 28.122C33.3565 27.7623 33.2613 26.9066 33.3818 25.4059C33.5277 23.9053 33.883 22.3054 34.3397 21.8031C34.7964 21.307 35.1644 21.6667 35.3039 21.7969C35.3039 21.7969 35.9129 22.3364 36.9215 23.9239L37.0991 24.2153C37.0991 24.2153 38.0126 25.716 38.1078 25.7098C38.1078 25.7098 38.1839 25.778 38.2473 25.7284C38.3425 25.7036 38.3044 25.2199 38.3044 25.2199C38.3044 25.2199 38.1141 23.589 37.2831 20.8234C37.2831 20.8234 37.1562 20.4761 37.2451 20.1536C37.3275 19.825 37.6637 19.98 37.6637 19.98C37.6637 19.98 38.9578 20.6125 39.5795 22.6713C40.1948 24.7486 39.7761 26.6027 39.5351 27.1608ZM33.1788 21.8713C33.071 22.0822 33.0076 22.386 32.462 22.4666C32.462 22.4666 27.2413 22.8139 26.9939 23.1736C26.9939 23.1736 26.8099 23.3844 27.0954 23.4464C27.3809 23.5022 28.5608 23.6572 29.1317 23.6882C29.7407 23.6944 31.796 23.713 32.5318 24.6122C32.5318 24.6122 32.9695 25.0401 32.9505 26.0074C32.9315 26.9996 32.7538 27.3469 32.3605 27.7065C31.9482 28.0414 28.4085 29.5916 26.1248 27.2104C26.1248 27.2104 25.0718 26.0632 26.4864 25.1951C26.4864 25.1951 27.5077 24.5936 30.1022 25.3005C30.1022 25.3005 30.8888 25.5796 30.8508 25.8586C30.8064 26.1563 30.2037 26.4725 29.3283 26.4539C28.4783 26.4291 27.8566 26.0322 27.9772 26.0942C28.0913 26.1376 27.0637 25.6106 26.7465 25.9702C26.4293 26.2989 26.5055 26.5035 26.8163 26.7081C27.6092 27.1484 30.6732 26.9934 31.5866 26.0012C31.5866 26.0012 31.9482 25.5982 31.3963 25.2695C30.8444 24.9595 29.2649 24.7734 28.6496 24.7424C28.0596 24.7114 25.8648 24.7486 25.5476 24.1781C25.5476 24.1781 25.2304 23.7937 25.5793 22.7023C25.9472 21.5613 28.5037 21.121 29.6075 21.0218C29.6075 21.0218 32.646 20.9164 33.2042 21.5241C33.1979 21.5241 33.274 21.6667 33.1788 21.8713ZM24.5517 28.5623C24.1837 28.8289 23.4035 28.7111 23.1815 28.4134C22.9594 28.1468 22.8833 27.0864 22.9277 25.4245C22.9721 23.7441 23.0102 21.6605 23.3781 21.3318C23.7714 20.997 24.0125 21.2884 24.1647 21.5179C24.3296 21.7411 24.5263 21.9892 24.5707 22.5162C24.6087 23.0433 24.7356 25.809 24.7356 25.809C24.7356 25.809 24.9005 28.3018 24.5517 28.5623ZM25.3446 19.6452C24.2725 19.9924 23.5367 19.8746 22.915 19.6141C22.6423 20.0792 22.4837 20.2219 22.2743 20.2529C21.9698 20.2839 21.6971 19.8064 21.6463 19.6514C21.5956 19.5335 21.4497 19.3351 21.6273 18.8638C21.0183 18.3305 20.9739 17.6112 21.0754 17.1275C21.2276 16.5694 22.2553 14.4487 25.3827 14.2006C25.3827 14.2006 26.9115 14.089 27.1715 14.889H27.216C27.216 14.889 28.7003 14.8952 28.6686 16.185C28.6496 17.481 27.0193 19.0933 25.3446 19.6452ZM22.4266 16.7741C22.1094 17.2702 22.0967 17.5678 22.2426 17.7724C22.6042 17.2329 23.2639 16.3834 24.2345 15.7385C23.4859 15.8005 22.8579 16.1168 22.4266 16.7741ZM26.7465 15.9431C25.7633 16.0858 24.2408 17.3756 23.5177 18.4298C24.6278 18.6282 26.5879 18.5538 27.457 16.8237C27.4507 16.8237 27.8693 15.7509 26.7465 15.9431ZM53.4401 25.933C52.8501 26.9376 51.1945 29.0335 48.9869 28.5437C48.2574 30.2738 47.6484 32.0162 47.2995 34.6331C47.2995 34.6331 47.2234 35.1416 46.792 34.9617C46.367 34.8129 45.6566 34.1184 45.517 33.1572C45.3648 31.8922 45.942 29.7529 47.1156 27.3034C46.773 26.7578 46.5383 25.9764 46.7413 24.8664C46.7413 24.8664 47.0394 22.8077 49.1518 20.9474C49.1518 20.9474 49.4056 20.7303 49.5515 20.7986C49.7164 20.8668 49.6403 21.5365 49.5071 21.8589C49.3739 22.1814 48.4287 23.7813 48.4287 23.7813C48.4287 23.7813 47.8387 24.8602 48.0037 25.7098C49.1138 24.0417 51.6385 20.6745 53.2053 21.7349C53.7319 22.1008 53.9729 22.9007 53.9729 23.7627C53.9666 24.5254 53.7826 25.3315 53.4401 25.933ZM52.9833 23.2914C52.9833 23.2914 52.8945 22.6279 52.2348 23.3596C51.6639 23.9735 50.6362 25.1331 49.8052 26.7019C50.6743 26.6089 51.5116 26.1439 51.7654 25.9082C52.1777 25.5486 53.1356 24.5812 52.9833 23.2914ZM22.1855 24.1347C22.065 25.6354 21.475 28.1592 17.2947 29.4056C14.5352 30.2179 11.928 29.8273 10.5071 29.4738C10.4754 30.0257 10.4119 30.2614 10.3231 30.3544C10.2026 30.4722 9.30182 30.9807 8.80703 30.2613C8.585 29.9203 8.47083 29.3002 8.40739 28.7483C5.21026 27.3097 3.73856 25.2385 3.68146 25.1455C3.61168 25.0773 2.88218 24.3331 3.61168 23.4216C4.29679 22.5969 6.53605 21.7721 8.55329 21.4373C8.62307 19.7506 8.82606 18.4794 9.06711 17.8965C9.35891 17.2206 9.72684 17.8283 10.044 18.2871C10.3104 18.6282 10.469 20.0978 10.4817 21.2698C11.8012 21.2078 12.5814 21.3008 14.0531 21.5613C15.9689 21.9023 17.2503 22.8573 17.1361 23.9425C17.0536 25.0091 16.0513 25.4493 15.6707 25.4803C15.2711 25.5114 14.6494 25.2323 14.6494 25.2323C14.2244 25.0339 14.6177 24.8602 15.1315 24.6432C15.6898 24.3766 15.5629 24.1037 15.5629 24.1037C15.3535 23.5084 12.8669 23.0929 10.3929 23.0929C10.3802 24.4262 10.45 26.6399 10.4817 27.9298C12.2135 28.2522 13.5076 28.1902 13.5076 28.1902C13.5076 28.1902 19.8257 28.0166 20.016 24.0727C20.2127 20.1226 13.7169 16.3338 8.91487 15.1308C4.11917 13.903 1.40413 14.7587 1.16942 14.8766C0.915686 15.0006 1.1504 15.0378 1.1504 15.0378C1.1504 15.0378 1.41049 15.075 1.86087 15.2238C2.33664 15.3726 1.96871 15.6145 1.96871 15.6145C1.1504 15.8687 0.230589 15.7075 0.0529708 15.3416C-0.124647 14.9758 0.173493 14.6471 0.516047 14.1758C0.858596 13.6798 1.23286 13.6984 1.23286 13.6984C7.16405 11.6892 14.3893 15.323 14.3893 15.323C21.1579 18.6778 22.3124 22.6093 22.1855 24.1347ZM4.2841 23.9301C3.61169 24.2525 4.07477 24.7176 4.07477 24.7176C5.33713 26.0446 6.89129 26.8756 8.36933 27.3903C8.54061 25.1021 8.51523 24.2959 8.53426 23.1425C6.22521 23.2976 4.89308 23.6572 4.2841 23.9301Z" fill="white"/>
<path d="M66.0003 23.4585V24.277C66.0003 24.4569 65.8544 24.5995 65.6704 24.5995H61.6803C61.6803 24.8041 61.6867 24.984 61.6867 25.1514C61.6867 26.3606 61.6359 27.3466 61.5154 28.4565C61.4964 28.624 61.3568 28.748 61.1919 28.748H60.3292C60.2404 28.748 60.1579 28.7108 60.1008 28.6488C60.0437 28.5868 60.012 28.5 60.0247 28.4131C60.1452 27.3093 60.2023 26.3358 60.2023 25.1514C60.2023 24.9778 60.2023 24.7979 60.1959 24.5995H56.2503C56.0663 24.5995 55.9204 24.4569 55.9204 24.277V23.4585C55.9204 23.2787 56.0663 23.136 56.2503 23.136H60.1389C60.0564 21.8028 59.8915 20.5192 59.625 19.217C59.6123 19.1364 59.6314 19.0558 59.6821 18.9937C59.7329 18.9317 59.809 18.8945 59.8915 18.8945H60.824C60.9699 18.8945 61.0904 18.9937 61.1221 19.1364C61.3822 20.482 61.5471 21.7904 61.6296 23.136H65.6704C65.848 23.136 66.0003 23.2849 66.0003 23.4585Z" fill="white"/>
<path d="M60.57 16.9661C58.5084 12.0114 55.0258 7.78851 50.4965 4.75C45.8594 1.64328 40.423 0 34.7773 0C25.4396 0 16.7743 4.53296 11.6044 12.1292C11.5473 12.2099 11.5346 12.3153 11.5663 12.4083C11.598 12.5075 11.6742 12.5757 11.7693 12.6067L12.4925 12.8486C12.5368 12.861 12.5813 12.8672 12.6193 12.8672C12.7526 12.8672 12.8794 12.799 12.9555 12.6935C15.328 9.28297 18.5378 6.44909 22.2425 4.48956C26.0676 2.46802 30.4002 1.39524 34.7709 1.39524C40.0551 1.39524 45.1489 2.92069 49.5133 5.79798C53.7698 8.60705 57.0747 12.5323 59.073 17.1397C59.1301 17.2761 59.2696 17.3691 59.4219 17.3691H60.2846C60.3861 17.3691 60.4812 17.3195 60.532 17.2389C60.5954 17.1583 60.6081 17.0591 60.57 16.9661ZM12.6193 12.6563H12.632C12.632 12.6563 12.6257 12.6563 12.6193 12.6563ZM59.2442 17.2575C59.2633 17.2699 59.2823 17.2823 59.3013 17.2885C59.2823 17.2761 59.2633 17.2699 59.2442 17.2575Z" fill="url(#paint0_radial_2288_656)"/>
</g>
<defs>
<radialGradient id="paint0_radial_2288_656" cx="0" cy="0" r="1" gradientUnits="userSpaceOnUse" gradientTransform="translate(59.7596 17.3379) scale(48.2186 47.1356)">
<stop offset="0.007" stop-color="#021192"/>
<stop offset="0.03" stop-color="#021096"/>
<stop offset="0.057" stop-color="#010CB4"/>
<stop offset="0.084" stop-color="#0008CE"/>
<stop offset="0.111" stop-color="#0006D7"/>
<stop offset="0.138" stop-color="#0004E1"/>
<stop offset="0.165" stop-color="#0001FA"/>
<stop offset="0.191" stop-color="#0000FE"/>
<stop offset="0.216" stop-color="#0F1EFF"/>
<stop offset="1" stop-color="#00FFFF" stop-opacity="0"/>
</radialGradient>
<clipPath id="clip0_2288_656">
<rect width="124" height="35" fill="white"/>
</clipPath>
</defs>
</svg>
