<svg width="14" height="16" viewBox="0 0 14 16" fill="none" xmlns="http://www.w3.org/2000/svg">
<path d="M1.45801 3.40833C1.45801 2.52158 1.45801 2.07821 1.63058 1.73951C1.78238 1.44159 2.0246 1.19937 2.32252 1.04757C2.66122 0.875 3.10459 0.875 3.99134 0.875H10.008C10.8948 0.875 11.3381 0.875 11.6768 1.04757C11.9748 1.19937 12.217 1.44159 12.3688 1.73951C12.5413 2.07821 12.5413 2.52158 12.5413 3.40833V12.6636C12.5413 13.459 12.5413 13.8566 12.3764 14.0703C12.2328 14.2564 12.0139 14.3691 11.779 14.3778C11.5092 14.3878 11.1856 14.1566 10.5384 13.6944L6.99967 11.1667L3.46091 13.6944C2.81372 14.1566 2.49013 14.3878 2.22034 14.3778C1.98545 14.3691 1.76658 14.2564 1.62296 14.0703C1.45801 13.8566 1.45801 13.459 1.45801 12.6636V3.40833Z" fill="black" stroke="black" stroke-width="1.5" stroke-linecap="round" stroke-linejoin="round"/>
</svg>
