<svg width="148" height="49" viewBox="0 0 148 49" fill="none" xmlns="http://www.w3.org/2000/svg">
<rect x="0.5" y="0.5" width="147" height="48" rx="24" fill="white"/>
<rect x="0.5" y="0.5" width="147" height="48" rx="24" stroke="white"/>
<path d="M39.499 20.6943C37.393 20.6943 35.6934 22.3939 35.6934 24.4999C35.6934 26.6058 37.393 28.3054 39.499 28.3054C41.6049 28.3054 43.3046 26.6058 43.3046 24.4999C43.3046 22.3939 41.6049 20.6943 39.499 20.6943ZM39.499 26.9732C38.1371 26.9732 37.0256 25.8618 37.0256 24.4999C37.0256 23.138 38.1371 22.0265 39.499 22.0265C40.8609 22.0265 41.9723 23.138 41.9723 24.4999C41.9723 25.8618 40.8609 26.9732 39.499 26.9732ZM43.4604 19.6515C42.9687 19.6515 42.5716 20.0486 42.5716 20.5403C42.5716 21.032 42.9687 21.4291 43.4604 21.4291C43.9521 21.4291 44.3492 21.0339 44.3492 20.5403C44.3493 20.4235 44.3264 20.3079 44.2818 20.2C44.2372 20.0921 44.1718 19.9941 44.0892 19.9115C44.0066 19.829 43.9086 19.7635 43.8007 19.7189C43.6928 19.6743 43.5772 19.6514 43.4604 19.6515ZM46.9172 24.4999C46.9172 23.4756 46.9264 22.4607 46.8689 21.4383C46.8114 20.2508 46.5405 19.1969 45.6721 18.3286C44.8019 17.4584 43.7499 17.1893 42.5624 17.1318C41.5381 17.0743 40.5232 17.0836 39.5008 17.0836C38.4766 17.0836 37.4617 17.0743 36.4393 17.1318C35.2518 17.1893 34.1979 17.4602 33.3296 18.3286C32.4593 19.1988 32.1903 20.2508 32.1328 21.4383C32.0753 22.4626 32.0845 23.4775 32.0845 24.4999C32.0845 25.5222 32.0753 26.539 32.1328 27.5614C32.1903 28.7489 32.4612 29.8028 33.3296 30.6712C34.1998 31.5414 35.2518 31.8104 36.4393 31.8679C37.4635 31.9255 38.4785 31.9162 39.5008 31.9162C40.5251 31.9162 41.54 31.9255 42.5624 31.8679C43.7499 31.8104 44.8038 31.5395 45.6721 30.6712C46.5423 29.8009 46.8114 28.7489 46.8689 27.5614C46.9283 26.539 46.9172 25.5241 46.9172 24.4999ZM45.2843 28.8751C45.1489 29.2128 44.9856 29.4651 44.724 29.7249C44.4624 29.9865 44.2119 30.1498 43.8742 30.2852C42.8982 30.673 40.5807 30.5858 39.499 30.5858C38.4173 30.5858 36.0979 30.673 35.1219 30.2871C34.7842 30.1516 34.5319 29.9883 34.2721 29.7267C34.0105 29.4651 33.8472 29.2146 33.7118 28.8769C33.3258 27.8991 33.4131 25.5816 33.4131 24.4999C33.4131 23.4181 33.3258 21.0988 33.7118 20.1228C33.8472 19.7851 34.0105 19.5328 34.2721 19.273C34.5338 19.0132 34.7842 18.8481 35.1219 18.7127C36.0979 18.3267 38.4173 18.4139 39.499 18.4139C40.5807 18.4139 42.9001 18.3267 43.876 18.7127C44.2137 18.8481 44.4661 19.0114 44.7258 19.273C44.9875 19.5346 45.1507 19.7851 45.2862 20.1228C45.6721 21.0988 45.5849 23.4181 45.5849 24.4999C45.5849 25.5816 45.6721 27.8991 45.2843 28.8751Z" fill="black"/>
<path d="M59.957 29V19.1357H61.1875V29H59.957ZM62.917 29V21.8906H64.1064V22.9023H64.1338C64.5166 22.2393 65.2412 21.7539 66.3213 21.7539C67.8799 21.7539 68.7822 22.7656 68.7822 24.3857V29H67.5928V24.5977C67.5928 23.4424 67.0527 22.8066 65.959 22.8066C64.8379 22.8066 64.1064 23.6064 64.1064 24.8164V29H62.917ZM72.8223 29.1367C71.1475 29.1367 70.1357 28.2822 69.9922 27.0107L69.9854 26.9492H71.1748L71.1885 27.0176C71.332 27.7285 71.8584 28.1455 72.8291 28.1455C73.793 28.1455 74.3672 27.7422 74.3672 27.0996V27.0928C74.3672 26.5801 74.1006 26.293 73.2939 26.0947L72.166 25.8213C70.8262 25.5 70.1768 24.8779 70.1768 23.8525V23.8457C70.1768 22.6221 71.25 21.7539 72.7881 21.7539C74.3467 21.7539 75.3379 22.6631 75.4268 23.8525L75.4336 23.9414H74.2988L74.292 23.8936C74.1963 23.2031 73.6699 22.7451 72.7881 22.7451C71.9268 22.7451 71.3936 23.1621 71.3936 23.791V23.7979C71.3936 24.2832 71.7148 24.6182 72.501 24.8096L73.6289 25.083C75.0645 25.4316 75.584 25.999 75.584 27.0107V27.0176C75.584 28.2617 74.4082 29.1367 72.8223 29.1367ZM79.1318 29.1367C77.8262 29.1367 77.1836 28.5488 77.1836 27.1885V22.875H76.1445V21.8906H77.1836V19.9697H78.4141V21.8906H79.7676V22.875H78.4141V27.1816C78.4141 27.9404 78.749 28.1523 79.3848 28.1523C79.5283 28.1523 79.665 28.1318 79.7676 28.125V29.0889C79.6172 29.1094 79.3643 29.1367 79.1318 29.1367ZM82.9873 29.1367C81.5723 29.1367 80.6221 28.2822 80.6221 26.9902V26.9766C80.6221 25.7666 81.5654 25.0078 83.1992 24.9121L85.2363 24.7959V24.2012C85.2363 23.333 84.6689 22.8066 83.6777 22.8066C82.7617 22.8066 82.1875 23.2441 82.0508 23.8799L82.0371 23.9414H80.8887L80.8955 23.8662C80.998 22.6973 82.0166 21.7539 83.6914 21.7539C85.373 21.7539 86.4258 22.6631 86.4258 24.085V29H85.2363V27.8447H85.209C84.792 28.624 83.9375 29.1367 82.9873 29.1367ZM81.8389 26.9902C81.8389 27.6738 82.3994 28.1045 83.2539 28.1045C84.375 28.1045 85.2363 27.332 85.2363 26.2998V25.7188L83.3359 25.835C82.3857 25.8896 81.8389 26.3135 81.8389 26.9766V26.9902ZM90.9443 31.5293C89.1875 31.5293 88.0801 30.7021 87.8477 29.6494L87.834 29.5879H89.0303L89.0576 29.6494C89.2832 30.1621 89.96 30.4766 90.9307 30.4766C92.1816 30.4766 92.8926 29.7861 92.8926 28.6855V27.7764H92.8652C92.4414 28.5625 91.6211 29.0684 90.6025 29.0684C88.8115 29.0684 87.5879 27.626 87.5879 25.4043V25.3975C87.5879 23.1895 88.8252 21.7539 90.6299 21.7539C91.6348 21.7539 92.4277 22.3008 92.8652 23.0938H92.8926V21.8906H94.082V28.8018C94.082 30.4492 92.8721 31.5293 90.9443 31.5293ZM90.8623 28.0156C92.0723 28.0156 92.8926 26.9834 92.8926 25.4043V25.3975C92.8926 23.832 92.0654 22.8066 90.8623 22.8066C89.5977 22.8066 88.8047 23.8184 88.8047 25.3975V25.4043C88.8047 27.0176 89.5977 28.0156 90.8623 28.0156ZM95.6201 29V21.8906H96.8096V23.0938H96.8369C97.0762 22.2734 97.6914 21.7539 98.4912 21.7539C98.6963 21.7539 98.874 21.7881 98.9697 21.8018V22.957C98.874 22.9229 98.6211 22.8887 98.334 22.8887C97.4111 22.8887 96.8096 23.5312 96.8096 24.6113V29H95.6201ZM101.882 29.1367C100.467 29.1367 99.5166 28.2822 99.5166 26.9902V26.9766C99.5166 25.7666 100.46 25.0078 102.094 24.9121L104.131 24.7959V24.2012C104.131 23.333 103.563 22.8066 102.572 22.8066C101.656 22.8066 101.082 23.2441 100.945 23.8799L100.932 23.9414H99.7832L99.79 23.8662C99.8926 22.6973 100.911 21.7539 102.586 21.7539C104.268 21.7539 105.32 22.6631 105.32 24.085V29H104.131V27.8447H104.104C103.687 28.624 102.832 29.1367 101.882 29.1367ZM100.733 26.9902C100.733 27.6738 101.294 28.1045 102.148 28.1045C103.27 28.1045 104.131 27.332 104.131 26.2998V25.7188L102.23 25.835C101.28 25.8896 100.733 26.3135 100.733 26.9766V26.9902ZM106.831 29V21.8906H108.021V22.9297H108.048C108.369 22.2256 109.08 21.7539 109.996 21.7539C110.967 21.7539 111.685 22.2529 111.992 23.1211H112.02C112.416 22.2666 113.25 21.7539 114.248 21.7539C115.656 21.7539 116.565 22.6768 116.565 24.0918V29H115.376V24.3652C115.376 23.3877 114.836 22.8066 113.899 22.8066C112.956 22.8066 112.293 23.5107 112.293 24.4814V29H111.104V24.2354C111.104 23.374 110.529 22.8066 109.647 22.8066C108.704 22.8066 108.021 23.5518 108.021 24.543V29H106.831Z" fill="black"/>
</svg>
