<svg width="141" height="49" viewBox="0 0 141 49" fill="none" xmlns="http://www.w3.org/2000/svg">
<rect x="0.5" y="0.5" width="139.442" height="48" rx="24" fill="#5865F2"/>
<rect x="0.5" y="0.5" width="139.442" height="48" rx="24" stroke="#5865F2"/>
<g clip-path="url(#clip0_634_1095)">
<path d="M50.7048 16.5846C49.1019 15.8346 47.4061 15.3017 45.6623 15C45.4451 15.3927 45.1913 15.9209 45.0163 16.3411C43.1362 16.0584 41.2733 16.0584 39.4277 16.3411C39.2528 15.921 38.9933 15.3927 38.7741 15C37.0286 15.3019 35.3313 15.8361 33.7276 16.5886C30.5364 21.411 29.6713 26.1136 30.1038 30.7496C32.2204 32.3302 34.2717 33.2904 36.2883 33.9187C36.7895 33.2295 37.2326 32.4998 37.6129 31.7372C36.8888 31.4615 36.1908 31.1218 35.5271 30.7221C35.7017 30.5926 35.8723 30.4577 36.0385 30.3175C40.0602 32.1986 44.43 32.1986 48.4037 30.3175C48.5706 30.4568 48.7411 30.5917 48.915 30.7221C48.2503 31.1229 47.5509 31.4633 46.8254 31.7392C47.2079 32.5049 47.6501 33.2353 48.15 33.9207C50.1685 33.2924 52.2217 32.3322 54.3383 30.7496C54.8459 25.3753 53.4714 20.7159 50.7048 16.5846ZM38.1608 27.8985C36.9535 27.8985 35.9634 26.7714 35.9634 25.3989C35.9634 24.0264 36.9324 22.8974 38.1608 22.8974C39.3893 22.8974 40.3793 24.0244 40.3582 25.3989C40.3601 26.7714 39.3893 27.8985 38.1608 27.8985ZM46.2813 27.8985C45.074 27.8985 44.084 26.7714 44.084 25.3989C44.084 24.0264 45.0529 22.8974 46.2813 22.8974C47.5098 22.8974 48.4998 24.0244 48.4787 25.3989C48.4787 26.7714 47.5098 27.8985 46.2813 27.8985Z" fill="white"/>
</g>
<path d="M65.3994 29V19.1357H68.7148C71.6338 19.1357 73.3701 20.9541 73.3701 24.0508V24.0645C73.3701 27.1748 71.6475 29 68.7148 29H65.3994ZM66.6299 27.8926H68.6328C70.8682 27.8926 72.1123 26.5254 72.1123 24.0781V24.0645C72.1123 21.6035 70.8682 20.2432 68.6328 20.2432H66.6299V27.8926ZM75.3867 20.6875C74.9766 20.6875 74.6416 20.3525 74.6416 19.9424C74.6416 19.5254 74.9766 19.1973 75.3867 19.1973C75.8037 19.1973 76.1318 19.5254 76.1318 19.9424C76.1318 20.3525 75.8037 20.6875 75.3867 20.6875ZM74.792 29V21.8906H75.9814V29H74.792ZM80.124 29.1367C78.4492 29.1367 77.4375 28.2822 77.2939 27.0107L77.2871 26.9492H78.4766L78.4902 27.0176C78.6338 27.7285 79.1602 28.1455 80.1309 28.1455C81.0947 28.1455 81.6689 27.7422 81.6689 27.0996V27.0928C81.6689 26.5801 81.4023 26.293 80.5957 26.0947L79.4678 25.8213C78.1279 25.5 77.4785 24.8779 77.4785 23.8525V23.8457C77.4785 22.6221 78.5518 21.7539 80.0898 21.7539C81.6484 21.7539 82.6396 22.6631 82.7285 23.8525L82.7354 23.9414H81.6006L81.5938 23.8936C81.498 23.2031 80.9717 22.7451 80.0898 22.7451C79.2285 22.7451 78.6953 23.1621 78.6953 23.791V23.7979C78.6953 24.2832 79.0166 24.6182 79.8027 24.8096L80.9307 25.083C82.3662 25.4316 82.8857 25.999 82.8857 27.0107V27.0176C82.8857 28.2617 81.71 29.1367 80.124 29.1367ZM87.0693 29.1367C85.0527 29.1367 83.7744 27.7012 83.7744 25.4385V25.4316C83.7744 23.1895 85.0801 21.7539 87.0557 21.7539C88.8262 21.7539 89.8721 22.9297 90.0225 24.1465L90.0293 24.2012H88.8672L88.8535 24.1465C88.6758 23.4355 88.1016 22.8066 87.0557 22.8066C85.8184 22.8066 84.9912 23.832 84.9912 25.4453V25.4521C84.9912 27.1064 85.8389 28.084 87.0693 28.084C88.04 28.084 88.6621 27.5371 88.8604 26.7441L88.874 26.6895H90.043L90.0361 26.7373C89.8447 28.0908 88.6758 29.1367 87.0693 29.1367ZM94.083 29.1367C92.1074 29.1367 90.7881 27.708 90.7881 25.4453V25.4316C90.7881 23.1689 92.1143 21.7539 94.0762 21.7539C96.0381 21.7539 97.3711 23.1621 97.3711 25.4316V25.4453C97.3711 27.7148 96.0449 29.1367 94.083 29.1367ZM94.0898 28.084C95.3408 28.084 96.1543 27.1133 96.1543 25.4453V25.4316C96.1543 23.7637 95.334 22.8066 94.0762 22.8066C92.8389 22.8066 92.0049 23.7705 92.0049 25.4316V25.4453C92.0049 27.1201 92.832 28.084 94.0898 28.084ZM98.5742 29V21.8906H99.7637V23.0938H99.791C100.03 22.2734 100.646 21.7539 101.445 21.7539C101.65 21.7539 101.828 21.7881 101.924 21.8018V22.957C101.828 22.9229 101.575 22.8887 101.288 22.8887C100.365 22.8887 99.7637 23.5312 99.7637 24.6113V29H98.5742ZM105.226 29.1367C103.407 29.1367 102.204 27.6875 102.204 25.4453V25.4385C102.204 23.1963 103.421 21.7539 105.205 21.7539C106.21 21.7539 107.037 22.2598 107.481 23.0801H107.509V19.1357H108.698V29H107.509V27.7969H107.481C107.037 28.624 106.244 29.1367 105.226 29.1367ZM105.458 28.084C106.661 28.084 107.516 27.0381 107.516 25.4453V25.4385C107.516 23.8525 106.654 22.8066 105.458 22.8066C104.2 22.8066 103.421 23.8184 103.421 25.4385V25.4453C103.421 27.0791 104.2 28.084 105.458 28.084Z" fill="white"/>
<defs>
<clipPath id="clip0_634_1095">
<rect width="24.4422" height="19" fill="white" transform="translate(30 15)"/>
</clipPath>
</defs>
</svg>
