<svg width="54" height="53" viewBox="0 0 54 53" fill="none" xmlns="http://www.w3.org/2000/svg">
<mask id="mask0_140_315" style="mask-type:luminance" maskUnits="userSpaceOnUse" x="0" y="9" width="43" height="44">
<path d="M0 26.2884L23.9538 9.86362L42.1222 36.3602L18.1684 52.785L0 26.2884Z" fill="white"/>
</mask>
<g mask="url(#mask0_140_315)">
<path d="M17.0121 19.4695L10.1235 19.5158L10.2151 33.2986C10.2157 33.303 10.2154 33.3044 10.216 33.3088L10.2616 40.1665C10.2743 42.0222 11.7874 43.5162 13.6434 43.5022L32.0034 43.3794L42.1491 36.4226L17.1268 36.591L17.0121 19.4695Z" fill="#BACC4A"/>
</g>
<mask id="mask1_140_315" style="mask-type:luminance" maskUnits="userSpaceOnUse" x="10" y="0" width="44" height="44">
<path d="M10.9111 16.5212L34.865 0.0964411L53.0761 26.6554L29.1223 43.0802L10.9111 16.5212Z" fill="white"/>
</mask>
<g mask="url(#mask1_140_315)">
<path d="M39.433 9.44093L21.073 9.56381L10.9272 16.5206L35.9487 16.3527L36.0643 33.4737L42.9529 33.4274L42.8613 19.6446C42.8599 19.6407 42.8604 19.638 42.8604 19.6344L42.8147 12.7767C42.8013 10.9216 41.2881 9.42748 39.433 9.44093Z" fill="#BACC4A"/>
</g>
</svg>
