<svg width="106" height="58" viewBox="0 0 106 58" fill="none" xmlns="http://www.w3.org/2000/svg">
<path d="M38.0058 9.00124H38.6371L41.3148 11.6209V34.1244C41.3148 34.7215 41.3908 35.169 41.5435 35.4676C41.6956 35.7661 41.9318 35.9157 42.2509 35.9157C42.7876 35.9157 43.1977 35.5311 43.4806 34.762C43.7636 33.9929 43.9194 32.8323 43.9487 31.2804L46.6263 33.9898C46.22 34.9602 45.679 35.6845 45.0046 36.1619C44.3296 36.6393 43.528 36.878 42.5993 36.878C41.177 36.878 40.0557 36.3476 39.2361 35.2881C38.4159 34.2285 38.0058 32.8772 38.0058 31.2349V9.00124ZM19.8721 20.1966L20.5471 19.8158C21.3455 21.8159 22.263 23.313 23.3007 24.3053C24.3385 25.2981 25.4953 25.7949 26.773 25.7949C28.1953 25.7949 29.4288 25.0482 30.4741 23.5554C31.5187 22.0627 32.0416 20.085 32.0416 17.6212C32.0559 15.4266 31.657 13.7026 30.8443 12.4486C30.0315 11.1946 28.9576 10.5675 27.6225 10.5675C26.9114 10.5675 26.1454 10.8063 25.3258 11.2837C24.5062 11.7618 23.6385 12.4704 22.7242 13.4109L20.9391 10.1867C22.3035 9.39578 23.8486 9 25.5757 9C28.2022 9 30.2815 10.0596 31.8122 12.18C33.3436 14.2997 34.1015 16.9867 34.0872 20.2408C34.0872 22.7483 33.5175 24.8643 32.3782 26.5883C31.2388 28.3136 29.7479 29.1749 27.9043 29.1749C26.1772 29.1749 24.6464 28.4289 23.3113 26.9355C21.9763 25.4421 20.8301 23.1977 19.8721 20.1966ZM27.3826 43.1258L27.9703 42.4321C30.6261 44.985 33.8915 46.2615 37.7664 46.2615C39.7547 46.2615 41.5684 45.8813 43.2083 45.119C44.979 44.3131 45.8641 43.3284 45.8641 42.1634C45.8641 40.8801 44.9566 40.2381 43.1428 40.2381C41.5902 40.2381 39.8052 40.9692 37.7876 42.4327L35.1973 40.2381C37.8387 39.1337 39.9934 38.5808 41.6625 38.5808C43.1572 38.5808 44.3838 38.9093 45.3418 39.5662C46.4593 40.3279 47.0178 41.4398 47.0178 42.9027C47.0178 44.9476 46.0959 46.5756 44.2529 47.7842C42.6853 48.7995 40.8641 49.3068 38.7886 49.3068C36.6987 49.3068 34.5509 48.6873 32.3451 47.4482C30.2123 46.2528 28.5581 44.813 27.3826 43.1258ZM80.9996 14.4418L73.38 23.3541C75.1358 25.9071 76.014 28.4893 76.014 31.1021C76.014 32.833 75.5428 34.226 74.5991 35.2775C73.6555 36.3302 72.4077 36.8562 70.8551 36.8562C69.1859 36.8562 67.8652 36.2965 66.8929 35.1771C65.9206 34.0577 65.4344 32.497 65.4344 30.4969C65.4344 28.6158 66.5445 26.377 68.7652 23.7798L70.986 21.2044C69.2009 18.8459 67.336 17.0771 65.3914 15.8978C63.4468 14.7186 61.4217 14.129 59.3176 14.129C57.4452 14.129 55.6022 14.6818 53.7878 15.7863C55.6602 16.6969 57.2819 17.9322 58.6531 19.4923C60.025 21.0523 60.7106 22.6604 60.7106 24.3177C60.7106 25.9152 60.1771 27.2322 59.1106 28.2699C58.0442 29.3071 56.6836 29.8256 55.0294 29.8256C52.9539 29.8256 51.2598 28.9898 49.9459 27.3182C48.6327 25.6459 47.9757 23.4887 47.9757 20.846C47.9757 18.1441 48.9917 15.7632 51.0236 13.7033C53.0555 11.6433 55.3921 10.613 58.0336 10.613C60.2974 10.613 62.4234 11.2101 64.4116 12.4043C66.3999 13.5985 68.8089 16.2631 71.6392 20.3985L81.0002 9.40387L80.9996 14.4418ZM53.0916 16.3902C50.8858 18.3305 49.7826 20.6971 49.7826 23.4888C49.7826 24.8918 50.1529 26.0673 50.8927 27.0153C51.6331 27.9633 52.54 28.437 53.6139 28.437C54.7315 28.437 55.6527 27.9851 56.3788 27.082C57.1043 26.1788 57.467 25.0183 57.467 23.6003C57.467 22.0328 57.1006 20.6478 56.3676 19.4462C55.6352 18.2451 54.5432 17.226 53.0916 16.3902ZM72.7274 24.0703L70.7903 26.3321C69.3679 28.0187 68.3813 29.3214 67.8297 30.2395C67.2781 31.1582 67.0026 32.0644 67.0026 32.9601C67.0026 33.766 67.2525 34.4155 67.7536 34.9085C68.2541 35.4009 68.9111 35.6477 69.7238 35.6477C70.8993 35.6477 71.8754 35.0387 72.652 33.8221C73.4286 32.6055 73.8169 31.0716 73.8169 29.2204C73.8157 27.5189 73.4529 25.8024 72.7274 24.0703Z" fill="#BACC4A"/>
</svg>
