<svg width="20" height="15" viewBox="0 0 20 15" fill="none" xmlns="http://www.w3.org/2000/svg">
<path d="M18.5749 1.55877L9.30122 6.91296M1.19093 6.97663L3.35599 5.72663M4.05696 9.94073L5.35599 9.19073M6.48997 13.1548L7.35599 12.6548M9.4646 7.384L10.172 10.3923C10.4398 11.5311 10.5737 12.1006 10.8653 12.3184C11.1184 12.5076 11.4461 12.5659 11.749 12.4759C12.0978 12.3721 12.4201 11.8839 13.0647 10.9076L17.8822 3.61116C18.4497 2.75165 18.7335 2.3219 18.7057 1.9781C18.6814 1.67892 18.5241 1.40643 18.2771 1.23588C17.9933 1.03989 17.4793 1.07074 16.4512 1.13245L7.71152 1.65704C6.54696 1.72694 5.96469 1.76189 5.7005 2.01167C5.47112 2.22853 5.35761 2.54098 5.39429 2.85451C5.43654 3.21561 5.86059 3.61617 6.70869 4.4173L9.00578 6.58712C9.1355 6.70965 9.20036 6.77092 9.25264 6.84129C9.29905 6.90375 9.338 6.97141 9.36872 7.0429C9.40333 7.12344 9.42375 7.21029 9.4646 7.384Z" stroke="#BACC4A" stroke-width="2" stroke-linecap="round" stroke-linejoin="round"/>
</svg>
