<svg width="7" height="29" viewBox="0 0 7 29" fill="none" xmlns="http://www.w3.org/2000/svg">
<path d="M3.49967 14.5H3.51759M3.49967 3.75H3.51759M3.49967 25.25H3.51759M5.29134 14.5C5.29134 15.4895 4.48918 16.2917 3.49967 16.2917C2.51016 16.2917 1.70801 15.4895 1.70801 14.5C1.70801 13.5105 2.51016 12.7083 3.49967 12.7083C4.48918 12.7083 5.29134 13.5105 5.29134 14.5ZM5.29134 25.25C5.29134 26.2395 4.48918 27.0417 3.49967 27.0417C2.51016 27.0417 1.70801 26.2395 1.70801 25.25C1.70801 24.2605 2.51016 23.4583 3.49967 23.4583C4.48918 23.4583 5.29134 24.2605 5.29134 25.25ZM5.29134 3.75C5.29134 4.73951 4.48918 5.54166 3.49967 5.54166C2.51016 5.54166 1.70801 4.73951 1.70801 3.75C1.70801 2.76048 2.51016 1.95833 3.49967 1.95833C4.48918 1.95833 5.29134 2.76048 5.29134 3.75Z" stroke="white" stroke-width="2" stroke-linecap="round" stroke-linejoin="round"/>
</svg>
