<svg width="20" height="18" viewBox="0 0 20 18" fill="none" xmlns="http://www.w3.org/2000/svg">
<path d="M3 13V17M4 1V5M5 15H1M6 3H2M11 1L12.7528 5.44437C12.9407 5.92083 13.0347 6.15906 13.1786 6.35994C13.3061 6.538 13.462 6.69391 13.6401 6.82143C13.8409 6.9653 14.0792 7.05925 14.5556 7.24717L19 9L14.5556 10.7528C14.0792 10.9407 13.8409 11.0347 13.6401 11.1786C13.462 11.3061 13.3061 11.462 13.1786 11.6401C13.0347 11.8409 12.9407 12.0792 12.7528 12.5556L11 17L9.24717 12.5556C9.05925 12.0792 8.9653 11.8409 8.82143 11.6401C8.69391 11.462 8.538 11.3061 8.35994 11.1786C8.15906 11.0347 7.92083 10.9407 7.44437 10.7528L3 9L7.44437 7.24717C7.92083 7.05925 8.15906 6.9653 8.35994 6.82143C8.538 6.69391 8.69391 6.538 8.82143 6.35994C8.9653 6.15906 9.05925 5.92083 9.24717 5.44437L11 1Z" stroke="#BACC4A" stroke-width="2" stroke-linecap="round" stroke-linejoin="round"/>
</svg>
