<svg width="20" height="20" viewBox="0 0 20 20" fill="none" xmlns="http://www.w3.org/2000/svg">
<path d="M9.99913 5.19298C7.33898 5.19298 5.1921 7.33986 5.1921 10C5.1921 12.6602 7.33898 14.807 9.99913 14.807C12.6593 14.807 14.8062 12.6602 14.8062 10C14.8062 7.33986 12.6593 5.19298 9.99913 5.19298ZM9.99913 13.1242C8.27882 13.1242 6.87492 11.7203 6.87492 10C6.87492 8.2797 8.27882 6.87579 9.99913 6.87579C11.7194 6.87579 13.1234 8.2797 13.1234 10C13.1234 11.7203 11.7194 13.1242 9.99913 13.1242ZM15.003 3.87579C14.3819 3.87579 13.8804 4.37736 13.8804 4.99845C13.8804 5.61954 14.3819 6.12111 15.003 6.12111C15.6241 6.12111 16.1257 5.62189 16.1257 4.99845C16.1259 4.85097 16.097 4.7049 16.0406 4.56861C15.9843 4.43232 15.9016 4.30849 15.7973 4.2042C15.693 4.09992 15.5692 4.01723 15.4329 3.96088C15.2966 3.90452 15.1505 3.87561 15.003 3.87579ZM19.3694 10C19.3694 8.70626 19.3812 7.42423 19.3085 6.13283C19.2359 4.63283 18.8937 3.30158 17.7968 2.2047C16.6976 1.10548 15.3687 0.765639 13.8687 0.692982C12.5749 0.620326 11.2929 0.632045 10.0015 0.632045C8.70773 0.632045 7.4257 0.620326 6.13429 0.692982C4.63429 0.765639 3.30304 1.10783 2.20617 2.2047C1.10695 3.30392 0.767103 4.63283 0.694447 6.13283C0.621791 7.42658 0.63351 8.70861 0.63351 10C0.63351 11.2914 0.621791 12.5758 0.694447 13.8672C0.767103 15.3672 1.10929 16.6985 2.20617 17.7953C3.30538 18.8945 4.63429 19.2344 6.13429 19.307C7.42804 19.3797 8.71007 19.368 10.0015 19.368C11.2952 19.368 12.5773 19.3797 13.8687 19.307C15.3687 19.2344 16.6999 18.8922 17.7968 17.7953C18.896 16.6961 19.2359 15.3672 19.3085 13.8672C19.3835 12.5758 19.3694 11.2938 19.3694 10ZM17.3069 15.5266C17.1359 15.9531 16.9296 16.2719 16.5991 16.6C16.2687 16.9305 15.9523 17.1367 15.5257 17.3078C14.2929 17.7977 11.3655 17.6875 9.99913 17.6875C8.63273 17.6875 5.70304 17.7977 4.47023 17.3102C4.04367 17.1391 3.72492 16.9328 3.39679 16.6024C3.06632 16.2719 2.86007 15.9555 2.68898 15.5289C2.20148 14.2938 2.31163 11.3664 2.31163 10C2.31163 8.63361 2.20148 5.70392 2.68898 4.47111C2.86007 4.04454 3.06632 3.72579 3.39679 3.39767C3.72726 3.06954 4.04367 2.86095 4.47023 2.68986C5.70304 2.20236 8.63273 2.31251 9.99913 2.31251C11.3655 2.31251 14.2952 2.20236 15.528 2.68986C15.9546 2.86095 16.2734 3.0672 16.6015 3.39767C16.9319 3.72814 17.1382 4.04454 17.3093 4.47111C17.7968 5.70392 17.6866 8.63361 17.6866 10C17.6866 11.3664 17.7968 14.2938 17.3069 15.5266Z" fill="#BACC4A"/>
</svg>
