<svg width="106" height="58" viewBox="0 0 106 58" fill="none" xmlns="http://www.w3.org/2000/svg">
<g clip-path="url(#clip0_2025_1144)">
<path d="M57.6155 7.06509C57.2042 7.20975 57.0464 7.42313 57.0243 7.86795C57.006 8.24045 57.0904 8.45382 57.4246 8.8444C57.9423 9.45921 58.0745 9.94381 58.1589 11.5025C58.2067 12.4066 58.1846 14.1642 58.1259 14.3125C58.0708 14.4391 58.0598 14.4427 55.405 15.1009C52.8421 15.7338 52.5079 15.8242 52.4198 15.9327C52.3794 15.9797 52.3537 16.0738 52.3537 16.1569C52.3537 16.2763 52.3757 16.3269 52.4822 16.4246C52.6511 16.5801 53.8518 17.1732 54.2521 17.2925C54.5201 17.3757 54.6009 17.3865 54.8983 17.3685C55.2398 17.3504 55.3279 17.3287 57.061 16.8802C57.52 16.7609 57.9496 16.656 58.0157 16.6488L58.1369 16.6379L58.1663 16.9092C58.1993 17.1985 58.1699 18.9995 58.1259 19.3322C58.1039 19.513 58.0892 19.5347 57.9717 19.5926C57.9019 19.6251 57.5641 19.73 57.2189 19.8204C56.1651 20.1061 51.2264 21.3213 51.1273 21.3213C51.0759 21.3213 51.0318 21.3068 51.0318 21.2923C51.0318 21.2743 51.1383 21.1224 51.2632 20.956C51.5532 20.5799 51.5826 20.5256 51.5826 20.3738C51.5789 20.1857 51.4651 19.9796 51.2301 19.7626C50.5655 19.1441 48.6084 18.1171 47.9474 18.0411C47.7308 18.0158 47.6574 18.0556 47.147 18.4534C46.923 18.6306 46.5778 18.8693 46.3796 18.985C45.3624 19.589 43.8239 20.3195 42.4176 20.8728C41.2426 21.3321 41.1912 21.3611 41.1912 21.5997C41.1912 21.824 41.4299 22.0554 41.8705 22.2616C42.2267 22.4279 42.5204 22.4894 42.8986 22.4713C43.2732 22.4532 43.6624 22.3339 44.808 21.8927C45.1715 21.7516 45.7407 21.5346 46.0748 21.4045L46.6807 21.173L46.7651 21.267C46.923 21.4479 46.8679 21.6757 46.3722 22.8872C45.311 25.4911 44.4555 27.2306 43.6917 28.3517C43.3686 28.8255 43.3172 28.9195 43.2952 29.1473C43.2474 29.603 43.7211 30.7278 44.1617 31.2087C44.2792 31.3353 44.5877 31.4836 44.7346 31.4836C44.8888 31.4836 45.1421 31.3606 45.3184 31.2015C45.4028 31.1256 45.6085 30.999 45.781 30.9158C46.2621 30.688 47.6243 30.2034 48.2228 30.0515C48.4248 29.9972 48.4432 30.0008 48.4872 30.0587C48.557 30.1527 48.546 30.2974 48.4468 30.7061C48.2779 31.3823 47.4664 33.8596 46.9854 35.1543L46.8275 35.5883L46.688 35.5811C46.6109 35.5738 46.2143 35.4834 45.8067 35.3713C44.3343 34.9771 43.6146 34.8686 42.4947 34.8686C41.4189 34.8722 40.9342 34.9735 40.8424 35.223C40.7359 35.5268 41.2536 36.3188 41.786 36.6588C42.0357 36.8143 42.2744 36.8577 43.1557 36.8902C43.7946 36.9156 44.3417 36.9879 44.808 37.1072C45.3588 37.2519 45.9683 37.4761 46.016 37.5521C46.0601 37.6208 44.9769 39.429 44.2572 40.4886C43.4017 41.7472 42.2524 43.2119 40.9892 44.6476C40.0896 45.6747 39.9538 45.8808 39.9868 46.1846C40.0419 46.6656 40.3687 46.6511 41.1471 46.134C41.786 45.7145 42.6746 44.9731 43.8313 43.9135C45.1348 42.7128 46.0674 41.6785 47.5362 39.8015C47.8997 39.335 48.2375 38.9046 48.2853 38.8468L48.3734 38.7455L48.6451 38.8576C48.9939 39.0023 49.9707 39.505 50.672 39.8955C52.4308 40.8792 53.8078 41.7833 59.165 45.4794C63.4354 48.4268 65.1245 49.5624 65.5724 49.783C65.8956 49.9421 66.1269 49.9819 66.674 49.9783C67.2285 49.9747 67.6654 49.9096 68.7853 49.6564C70.9921 49.1574 74.8733 48.0471 75.6077 47.7035C75.85 47.5914 75.9675 47.4504 75.9896 47.2406C76.0079 47.0526 75.9235 46.879 75.7399 46.7343C75.6187 46.6403 75.5196 46.615 74.6934 46.4703C71.352 45.8881 68.8735 45.2371 66.0424 44.1992C64.4562 43.6205 60.1014 41.8521 60.1014 41.7906C60.1014 41.7761 60.1748 41.6242 60.2629 41.4542C60.5677 40.8648 60.6264 40.4452 60.9275 36.7817C60.9789 36.1489 61.0267 35.6209 61.0377 35.6136C61.1185 35.5341 61.9336 35.4798 64.1771 35.4075C67.0082 35.3135 68.6495 35.2086 69.2994 35.0784C70.0962 34.9193 70.6139 34.3768 70.4964 33.8307C70.412 33.4437 70.1035 33.0893 69.6776 32.8868C69.2627 32.6879 67.5479 32.1599 66.8172 32.008C66.4574 31.932 65.969 31.932 65.756 32.008C65.6642 32.0405 65.4256 32.1599 65.2236 32.2792C64.7536 32.5541 64.3056 32.7566 63.9128 32.8723C63.2849 33.0604 61.5701 33.4003 61.2433 33.4003H61.0817L61.1038 32.6843C61.1332 31.8235 61.1992 30.9809 61.2433 30.9013C61.291 30.8073 61.9226 30.7024 64.6912 30.3263C65.5688 30.2034 66.4831 30.0732 66.7254 30.0334C67.4561 29.9104 67.7095 29.726 67.7095 29.3101C67.7058 28.8472 67.1844 28.3553 66.1599 27.849C65.5467 27.5452 65.1649 27.4223 64.8381 27.4223C64.5039 27.4187 64.313 27.4946 63.8173 27.8273C63.4391 28.0805 63.2114 28.1817 62.7084 28.3156C62.2237 28.4421 61.515 28.5904 61.3792 28.5904H61.2653L61.2874 28.0732C61.3131 27.4874 61.4085 26.5362 61.4636 26.3446C61.4967 26.218 61.5114 26.2071 61.8014 26.1167C62.3779 25.9395 63.9972 25.596 65.0033 25.4441C66.1783 25.2632 66.6006 25.1475 66.8356 24.945C66.9384 24.851 67.0412 24.6123 67.0412 24.4459C67.0412 24.2615 66.9274 23.8347 66.7805 23.4622L66.6667 23.1765L66.7768 22.8004C66.8356 22.5943 66.9714 22.1386 67.0779 21.7914C67.1844 21.4442 67.3349 20.9415 67.4121 20.6739C67.4928 20.4063 67.5663 20.1785 67.5736 20.164C67.603 20.1206 68.2603 20.0664 70.7131 19.9108C73.2099 19.7517 73.4376 19.7264 73.7717 19.56C74.1426 19.3792 74.4327 19.0103 74.4804 18.6704C74.5245 18.3485 74.2454 17.9435 73.7534 17.6071C72.9676 17.0755 71.8587 16.732 71.0509 16.7717C70.7131 16.7898 70.5625 16.8441 70.2651 17.0574C70.0374 17.2166 69.7767 17.2961 69.013 17.4336C68.6238 17.5059 68.2603 17.571 68.2015 17.5854L68.095 17.6071L68.1171 17.4119C68.1685 16.92 68.5797 15.987 68.9689 15.4807C69.3214 15.0214 69.4096 14.8225 69.4096 14.4861C69.4096 14.1028 69.2921 13.8605 69.0203 13.6833C68.7303 13.4952 67.5626 12.8587 66.8025 12.479C65.9103 12.0341 65.5945 11.9148 65.2126 11.8931L64.9078 11.8714L64.6251 12.1607C64.313 12.4826 64.1624 12.5694 63.5933 12.7647C63.1527 12.9166 61.7537 13.3288 61.6803 13.3288C61.6215 13.3288 61.6472 12.4175 61.7353 11.4302C61.8088 10.5767 61.8455 10.3706 62.0181 9.87872C62.231 9.25307 62.1943 9.10479 61.7133 8.6238C61.0083 7.92582 60.1895 7.49545 58.9227 7.16274C58.3021 7 57.8872 6.96745 57.6155 7.06509ZM64.3644 15.0865C64.4489 15.1732 64.4525 15.2022 64.4489 15.5819C64.4415 15.9544 64.2689 17.4914 64.1771 17.9543C64.1551 18.0628 64.1184 18.1677 64.0927 18.1822C63.9825 18.2509 63.373 18.3992 62.4807 18.5691C61.8088 18.6993 61.6986 18.7066 61.6582 18.6161C61.6435 18.5836 61.6252 17.8711 61.6142 17.0357L61.5995 15.5168L62.2714 15.336C63.3253 15.0575 63.6153 14.9997 63.9605 14.996C64.2542 14.9924 64.2799 14.9997 64.3644 15.0865ZM63.8467 20.7752C63.8467 21.1151 63.6447 22.786 63.5566 23.1729C63.5382 23.2525 63.5089 23.332 63.4905 23.3501C63.4207 23.4188 61.9336 23.7913 61.6068 23.8239L61.4783 23.8347L61.4673 23.5454C61.4453 22.9849 61.6142 20.9741 61.6913 20.8981C61.7574 20.8367 63.2592 20.6088 63.6741 20.6016L63.8467 20.598V20.7752ZM57.8982 23.2308C57.8835 24.077 57.8615 24.7352 57.8395 24.7533C57.8211 24.7714 56.8995 25.0643 55.7869 25.4079C52.7503 26.3373 52.3904 26.4567 52.3096 26.5362C52.2509 26.5941 52.2399 26.6411 52.2546 26.7532C52.2913 27.0317 52.4198 27.104 53.5691 27.4874C54.3145 27.7369 54.4063 27.7622 54.5385 27.7297C54.6192 27.7116 55.181 27.5633 55.7869 27.4042C57.7183 26.8907 57.7954 26.8762 57.8505 26.9485C57.8872 26.9992 57.8982 27.2885 57.8982 28.189C57.8982 28.8363 57.8872 29.4005 57.8762 29.4403C57.8615 29.5018 57.7734 29.5307 57.263 29.6283C56.4662 29.7802 54.6229 30.1853 53.8224 30.3842C53.2533 30.5216 53.1689 30.5542 53.0807 30.6518C52.9963 30.7386 52.9779 30.7965 52.9779 30.9375C52.9779 31.3353 53.2937 31.5306 54.3585 31.791L55.0195 31.9537L56.4662 31.6861C57.263 31.5378 57.9166 31.4185 57.9203 31.4221C57.9313 31.4547 57.8689 34.0549 57.8578 34.0694C57.8468 34.0802 56.8738 34.2683 55.6914 34.4853C51.6303 35.2447 51.0245 35.3785 50.8299 35.5558C50.672 35.7004 50.7307 35.9174 50.9988 36.1814C51.2081 36.3875 51.4614 36.5539 52.0196 36.8541L52.4785 37.0964L53.5617 36.8577C54.7955 36.5865 57.8542 35.9825 57.8762 36.0078C57.8835 36.015 57.9092 36.7854 57.9313 37.722C57.9753 39.5918 58.0231 40.3874 58.1039 40.7382C58.1332 40.8648 58.1479 40.9769 58.1369 40.9877C58.1185 41.0094 49.5631 36.8143 49.5631 36.7817C49.5631 36.7709 49.6108 36.666 49.6732 36.5503C50.3195 35.2881 51.2889 33.0893 51.8617 31.5812C52.1738 30.7603 52.3353 30.4276 52.563 30.1383C52.7723 29.867 52.8971 29.6283 52.9375 29.4041C52.9669 29.2522 52.9632 29.198 52.9008 29.0714C52.7319 28.7206 51.9608 28.1637 50.9951 27.6899C50.3268 27.3644 49.967 27.2415 49.6732 27.2415C49.4456 27.2415 49.2877 27.3102 48.9939 27.5416C48.8214 27.6754 48.4101 27.8852 47.6794 28.2071C47.0148 28.5 46.1409 28.8436 46.0638 28.8436C45.9096 28.8436 45.972 28.7351 47.4848 26.4748C49.6512 23.2272 50.1432 22.5219 50.3011 22.4388C50.3635 22.4062 50.4113 22.4207 50.5655 22.5183C50.9988 22.7896 51.5679 23.0934 51.6744 23.1151C51.8103 23.1404 51.9535 23.1078 53.3488 22.7389C55.0782 22.2796 57.8468 21.6576 57.8982 21.7155C57.9129 21.7263 57.9092 22.4098 57.8982 23.2308Z" fill="#BACC4A"/>
<path d="M39.1163 8.86973C38.8188 9.02162 38.705 9.24223 38.7454 9.57133C38.7711 9.77385 38.8262 9.88958 39.1787 10.5442C39.2925 10.7539 39.4247 11.0469 39.4688 11.1951C39.5385 11.4266 39.5459 11.4881 39.5128 11.6472C39.4063 12.1318 38.3966 14.7248 37.5631 16.6379C35.4701 21.4479 32.9328 26.0842 30.491 29.5488C29.562 30.8652 29.0847 31.5776 29.037 31.7151C28.9709 31.914 29.0076 32.1888 29.1141 32.3009C29.1912 32.3841 29.2242 32.3913 29.4115 32.3805C29.6942 32.3588 29.8595 32.2322 30.8178 31.2847C32.2976 29.8273 34.4346 27.491 36.0319 25.5743C36.7993 24.6557 37.0343 24.3844 37.1738 24.2796C37.2656 24.2036 37.273 24.2036 37.3207 24.2651C37.4088 24.3844 37.4272 24.728 37.4235 26.1493C37.4199 27.4476 37.4015 27.9431 37.295 29.8019C37.1408 32.4962 36.8213 36.308 36.5423 38.7347C36.3403 40.5104 36.2559 41.1215 35.9952 42.6405C35.7565 44.0581 35.7014 44.5789 35.7565 45.049C35.8336 45.7289 36.0723 46.7922 36.3073 47.5191C36.5533 48.2749 37.2436 49.0995 37.7503 49.2478C38.1065 49.3527 38.5728 49.2478 38.7931 49.0163C39.0649 48.7306 39.2705 48.2135 39.41 47.4721C39.5826 46.5643 39.6524 45.7072 39.7588 43.201C39.7992 42.2571 39.9167 39.74 40.0159 37.6135C40.3317 30.8399 40.4014 28.9557 40.4602 25.6068L40.5006 23.2199L40.0636 22.3339C39.8213 21.8457 39.5863 21.3574 39.5422 21.2417L39.4577 21.0392L40.8531 18.7283C41.6205 17.4589 42.4907 16.0051 42.7881 15.4987C43.3977 14.4608 43.7061 13.9907 43.9852 13.6724C44.2238 13.3976 44.3854 13.0721 44.3854 12.8659C44.3854 12.3452 43.5923 11.0143 42.8726 10.3416C42.2888 9.78831 41.0146 9.13735 40.0379 8.88419C39.6854 8.79378 39.2742 8.78655 39.1163 8.86973Z" fill="#BACC4A"/>
</g>
<defs>
<clipPath id="clip0_2025_1144">
<rect width="47" height="43" fill="white" transform="translate(29 7)"/>
</clipPath>
</defs>
</svg>
