<svg width="80" height="36" viewBox="0 0 80 36" fill="none" xmlns="http://www.w3.org/2000/svg">
<g clip-path="url(#clip0_2156_3591)">
<path d="M19.8167 5.29395H5.87178C2.83168 5.29395 0.367188 7.6642 0.367188 10.5881V23.9998C0.367188 26.9237 2.83168 29.2939 5.87178 29.2939H19.8167C22.8568 29.2939 25.3213 26.9237 25.3213 23.9998V10.5881C25.3213 7.6642 22.8568 5.29395 19.8167 5.29395Z" fill="#515A1A" fill-opacity="0.1" stroke="#BACC4A"/>
<path d="M74.1283 5.29395H60.1833C57.1432 5.29395 54.6787 7.6642 54.6787 10.5881V23.9998C54.6787 26.9237 57.1432 29.2939 60.1833 29.2939H74.1283C77.1684 29.2939 79.6328 26.9237 79.6328 23.9998V10.5881C79.6328 7.6642 77.1684 5.29395 74.1283 5.29395Z" fill="#515A1A" fill-opacity="0.1" stroke="#BACC4A"/>
<path d="M11.4063 21.8822V13.6515H8.41748V11.9351H16.5668V13.6515H13.5708V21.8822H11.4063Z" fill="#BACC4A"/>
<path d="M67.0225 22.0545C64.5641 22.0545 62.98 20.9722 62.8582 19.1386L62.8511 19.0283H64.8938L64.9081 19.1042C65.0442 19.8762 65.8972 20.3587 67.0798 20.3587C68.2768 20.3587 69.0293 19.8555 69.0293 19.0972V19.0903C69.0293 18.4148 68.5205 18.077 67.2375 17.8219L66.1481 17.6152C64.1054 17.2222 63.0732 16.2847 63.0732 14.7889V14.782C63.0732 12.9621 64.7218 11.7627 67.0153 11.7627C69.4092 11.7627 70.8786 12.9138 70.9789 14.6579L70.9861 14.7889H68.9433L68.9362 14.7062C68.8287 13.9272 68.0833 13.4515 67.0153 13.4515C65.9044 13.4584 65.2378 13.9479 65.2378 14.6579V14.6648C65.2378 15.2921 65.7682 15.6574 66.958 15.8849L68.0546 16.0986C70.2191 16.5122 71.194 17.3601 71.194 18.9249V18.9318C71.194 20.8413 69.6314 22.0545 67.0225 22.0545Z" fill="#BACC4A"/>
<g filter="url(#filter0_dddi_2156_3591)">
<path d="M51.3763 0.706055H28.624C25.3812 0.706055 22.7524 3.23433 22.7524 6.35311V28.2355C22.7524 31.3543 25.3812 33.8825 28.624 33.8825H51.3763C54.6191 33.8825 57.2479 31.3543 57.2479 28.2355V6.35311C57.2479 3.23433 54.6191 0.706055 51.3763 0.706055Z" fill="#BACC4A"/>
</g>
<path d="M34.6987 23.294V11.3574H37.3737L42.3364 18.2481H42.3966V11.3574H45.5445V23.294H42.8954L37.9069 16.329H37.8467V23.294H34.6987Z" fill="black"/>
</g>
<defs>
<filter id="filter0_dddi_2156_3591" x="20.7524" y="-2.29395" width="38.4956" height="39.1763" filterUnits="userSpaceOnUse" color-interpolation-filters="sRGB">
<feFlood flood-opacity="0" result="BackgroundImageFix"/>
<feColorMatrix in="SourceAlpha" type="matrix" values="0 0 0 0 0 0 0 0 0 0 0 0 0 0 0 0 0 0 127 0" result="hardAlpha"/>
<feOffset dy="1"/>
<feGaussianBlur stdDeviation="1"/>
<feComposite in2="hardAlpha" operator="out"/>
<feColorMatrix type="matrix" values="0 0 0 0 0.210057 0 0 0 0 0.236442 0 0 0 0 0.0479734 0 0 0 0.25 0"/>
<feBlend mode="normal" in2="BackgroundImageFix" result="effect1_dropShadow_2156_3591"/>
<feColorMatrix in="SourceAlpha" type="matrix" values="0 0 0 0 0 0 0 0 0 0 0 0 0 0 0 0 0 0 127 0" result="hardAlpha"/>
<feOffset dy="-2"/>
<feGaussianBlur stdDeviation="0.5"/>
<feComposite in2="hardAlpha" operator="out"/>
<feColorMatrix type="matrix" values="0 0 0 0 0.211765 0 0 0 0 0.235294 0 0 0 0 0.0470588 0 0 0 0.75 0"/>
<feBlend mode="normal" in2="effect1_dropShadow_2156_3591" result="effect2_dropShadow_2156_3591"/>
<feColorMatrix in="SourceAlpha" type="matrix" values="0 0 0 0 0 0 0 0 0 0 0 0 0 0 0 0 0 0 127 0" result="hardAlpha"/>
<feOffset dy="1"/>
<feGaussianBlur stdDeviation="0.5"/>
<feComposite in2="hardAlpha" operator="out"/>
<feColorMatrix type="matrix" values="0 0 0 0 1 0 0 0 0 1 0 0 0 0 1 0 0 0 0.25 0"/>
<feBlend mode="normal" in2="effect2_dropShadow_2156_3591" result="effect3_dropShadow_2156_3591"/>
<feBlend mode="normal" in="SourceGraphic" in2="effect3_dropShadow_2156_3591" result="shape"/>
<feColorMatrix in="SourceAlpha" type="matrix" values="0 0 0 0 0 0 0 0 0 0 0 0 0 0 0 0 0 0 127 0" result="hardAlpha"/>
<feOffset/>
<feGaussianBlur stdDeviation="2"/>
<feComposite in2="hardAlpha" operator="arithmetic" k2="-1" k3="1"/>
<feColorMatrix type="matrix" values="0 0 0 0 0.727607 0 0 0 0 0.7986 0 0 0 0 0.291507 0 0 0 1 0"/>
<feBlend mode="normal" in2="shape" result="effect4_innerShadow_2156_3591"/>
</filter>
<clipPath id="clip0_2156_3591">
<rect width="80" height="36" fill="white"/>
</clipPath>
</defs>
</svg>
