<svg width="133" height="35" viewBox="0 0 133 35" fill="none" xmlns="http://www.w3.org/2000/svg">
<g clip-path="url(#clip0_2288_633)">
<path d="M88.4907 0V25.4138C91.7014 25.5596 94.9036 25.7359 98.0969 25.9439V31.3321C93.0323 31.0024 87.9625 30.7522 82.8897 30.5816V0H88.4907ZM133 0.00304348L125.706 16.5124L132.998 34.8843L132.99 34.8876C130.864 34.5923 128.736 34.3114 126.606 34.0449L122.511 23.7336L118.378 33.0877C116.417 32.8761 114.454 32.6766 112.491 32.4891L119.601 16.4018L113.089 0.0032971H119.148L122.794 9.1804L126.848 0.00304348H133ZM63.6665 30.3146V0.00278986H79.3018V5.43946H69.2676V12.4851H76.8597V17.8733H69.2676V30.3136L63.6665 30.3146ZM42.752 5.43971V0.00253623H60.0758V5.43946H54.2142V30.4619C52.3446 30.5101 50.4772 30.5664 48.6136 30.6351V5.43971H42.752ZM23.6042 32.2015V0.00355072H39.1615V5.43996H29.2044V12.8042C31.4919 12.7755 34.7445 12.7433 36.768 12.7479V18.1366C34.2351 18.1062 31.3758 18.1706 29.2044 18.1916V26.3492C32.521 26.094 35.8402 25.8725 39.1615 25.6847V31.0734C33.9697 31.3658 28.7832 31.7421 23.6042 32.202M12.6168 19.7456L12.6166 0.00253623H18.2177V32.7098C16.1702 32.9152 14.1263 33.1341 12.0864 33.3651L5.60032 15.1728V34.1443C3.73189 34.3817 1.86492 34.6299 -0.000488281 34.8889V0.00304348H5.32237L12.6168 19.7456ZM102.718 31.657V0.00304348H108.319V32.1087C106.454 31.9464 104.588 31.7965 102.718 31.657Z" fill="#DB202C"/>
</g>
<defs>
<clipPath id="clip0_2288_633">
<rect width="133" height="35" fill="white"/>
</clipPath>
</defs>
</svg>
