<svg width="14" height="16" viewBox="0 0 14 16" fill="none" xmlns="http://www.w3.org/2000/svg">
<path d="M11.0417 5.21096C12.6632 6.12305 13.4739 6.57909 13.744 7.17834C13.9794 7.70082 13.9794 8.29918 13.744 8.82166C13.4739 9.42091 12.6632 9.87695 11.0417 10.789L4.76884 14.3175C3.2012 15.1993 2.41738 15.6402 1.77534 15.5676C1.21522 15.5043 0.707817 15.2076 0.378021 14.7504C0 14.2264 0 13.3271 0 11.5285V4.47151C0 2.67288 0 1.77357 0.378021 1.24957C0.707817 0.792422 1.21522 0.495672 1.77534 0.432353C2.41738 0.359774 3.2012 0.800673 4.76884 1.68247L11.0417 5.21096Z" fill="#131A29"/>
</svg>
