<svg width="20" height="20" viewBox="0 0 20 20" fill="none" xmlns="http://www.w3.org/2000/svg">
<path d="M10 0.5C4.75333 0.5 0.5 4.7534 0.5 10C0.5 15.247 4.7534 19.5 10 19.5C15.247 19.5 19.5 15.247 19.5 10C19.5 4.75377 15.247 0.50052 9.99985 0.50052L10 0.5ZM14.3566 14.2018C14.1864 14.4809 13.8211 14.5694 13.542 14.3981C11.3115 13.0356 8.50368 12.727 5.19686 13.4826C5.04373 13.5174 4.88303 13.49 4.75009 13.4064C4.61715 13.3228 4.52285 13.1898 4.48792 13.0367C4.47052 12.9609 4.46824 12.8824 4.4812 12.8058C4.49417 12.7291 4.52214 12.6557 4.56351 12.5899C4.60487 12.524 4.65882 12.4669 4.72226 12.422C4.78571 12.377 4.8574 12.345 4.93323 12.3277C8.55214 11.5009 11.6562 11.8569 14.1603 13.3873C14.4394 13.5586 14.5279 13.9228 14.3566 14.2018ZM15.5194 11.6151C15.3049 11.9635 14.8489 12.0736 14.5006 11.8592C11.9471 10.2896 8.0545 9.83501 5.03417 10.7518C4.64245 10.8701 4.22875 10.6494 4.10985 10.2584C3.99184 9.86663 4.21272 9.45368 4.60378 9.33463C8.05384 8.2877 12.3429 8.79484 15.2755 10.5969C15.6237 10.8114 15.7338 11.2673 15.5194 11.6151ZM15.6192 8.92145C12.5574 7.1028 7.5058 6.93551 4.58255 7.82287C4.11312 7.96522 3.61667 7.70018 3.47446 7.23075C3.33219 6.76109 3.59693 6.26502 4.06673 6.12229C7.42238 5.10357 13.001 5.30047 16.526 7.39314C16.9492 7.6437 17.0875 8.18906 16.8368 8.6107C16.5873 9.033 16.0404 9.17216 15.6196 8.92145H15.6192Z" fill="#1ED760"/>
</svg>
