<svg width="49" height="21" viewBox="0 0 49 21" fill="none" xmlns="http://www.w3.org/2000/svg">
<path d="M12.6414 3.08838H4.44879C2.66273 3.08838 1.21484 4.47103 1.21484 6.17661V14.0001C1.21484 15.7057 2.66273 17.0884 4.44879 17.0884H12.6414C14.4275 17.0884 15.8754 15.7057 15.8754 14.0001V6.17661C15.8754 4.47103 14.4275 3.08838 12.6414 3.08838Z" fill="#515A1A" fill-opacity="0.1" stroke="#BACC4A"/>
<path d="M44.5497 3.08838H36.357C34.5709 3.08838 33.123 4.47103 33.123 6.17661V14.0001C33.123 15.7057 34.5709 17.0884 36.357 17.0884H44.5497C46.3357 17.0884 47.7836 15.7057 47.7836 14.0001V6.17661C47.7836 4.47103 46.3357 3.08838 44.5497 3.08838Z" fill="#515A1A" fill-opacity="0.1" stroke="#BACC4A"/>
<path d="M7.70122 12.7647V7.96341H5.94531V6.96216H10.7331V7.96341H8.97289V12.7647H7.70122Z" fill="#BACC4A"/>
<path d="M40.3765 12.8653C38.9322 12.8653 38.0015 12.234 37.93 11.1644L37.9258 11.1001H39.1259L39.1343 11.1443C39.2143 11.5947 39.7154 11.8762 40.4102 11.8762C41.1134 11.8762 41.5555 11.5826 41.5555 11.1403V11.1363C41.5555 10.7422 41.2566 10.5452 40.5028 10.3964L39.8628 10.2758C38.6627 10.0465 38.0563 9.49966 38.0563 8.62709V8.62306C38.0563 7.56149 39.0248 6.86182 40.3723 6.86182C41.7787 6.86182 42.6419 7.53332 42.7009 8.55067L42.7051 8.62709H41.505L41.5008 8.57883C41.4376 8.12445 40.9997 7.84696 40.3723 7.84696C39.7196 7.851 39.328 8.13652 39.328 8.55067V8.5547C39.328 8.92064 39.6396 9.13373 40.3386 9.26644L40.9829 9.39108C42.2545 9.63238 42.8272 10.127 42.8272 11.0397V11.0438C42.8272 12.1576 41.9092 12.8653 40.3765 12.8653Z" fill="#BACC4A"/>
<path d="M31.1837 0.411621H17.8167C15.9116 0.411621 14.3672 1.88645 14.3672 3.70574V16.4704C14.3672 18.2897 15.9116 19.7646 17.8167 19.7646H31.1837C33.0888 19.7646 34.6332 18.2897 34.6332 16.4704V3.70574C34.6332 1.88645 33.0888 0.411621 31.1837 0.411621Z" fill="#BACC4A"/>
<path d="M21.3848 13.5883V6.62524H22.9563L25.8719 10.6448H25.9072V6.62524H27.7567V13.5883H26.2003L23.2696 9.5253H23.2342V13.5883H21.3848Z" fill="black"/>
</svg>
