<svg width="133" height="35" viewBox="0 0 133 35" fill="none" xmlns="http://www.w3.org/2000/svg">
<g clip-path="url(#clip0_2038_2573)">
<path d="M41.2152 7.52893C40.7302 5.74542 39.3058 4.34384 37.4935 3.86642C34.2121 3.00024 21.0476 3.00024 21.0476 3.00024C21.0476 3.00024 7.88335 3.00024 4.60179 3.86642C2.7895 4.34384 1.36529 5.74542 0.880164 7.52893C2.63466e-07 10.7583 0 17.5002 0 17.5002C0 17.5002 2.63466e-07 24.2421 0.880164 27.4716C1.36529 29.255 2.7895 30.6566 4.60179 31.134C7.88335 32.0002 21.0476 32.0002 21.0476 32.0002C21.0476 32.0002 34.2121 32.0002 37.4935 31.134C39.3058 30.6566 40.7302 29.255 41.2152 27.4716C42.0954 24.2421 42.0954 17.5002 42.0954 17.5002C42.0954 17.5002 42.0919 10.7583 41.2152 7.52893Z" fill="#FF0000"/>
<path d="M16.834 23.7138L27.7702 17.5006L16.834 11.2872V23.7138Z" fill="white"/>
<path d="M50.9834 21.8553L46.2568 5.05688H50.3805L52.0369 12.6717C52.4596 14.5473 52.768 16.1467 52.9689 17.4698H53.0902C53.2289 16.5218 53.5408 14.9327 54.0224 12.699L55.7376 5.05688H59.8613L55.0758 21.8553V29.9135H50.98V21.8553H50.9834Z" fill="white"/>
<path d="M61.1021 29.3809C60.2705 28.8285 59.6779 27.969 59.3244 26.8028C58.9745 25.6366 58.7979 24.0884 58.7979 22.1514V19.5153C58.7979 17.5613 58.9988 15.9892 59.4008 14.8059C59.8027 13.6226 60.4299 12.7564 61.2823 12.2142C62.1348 11.672 63.254 11.3992 64.6402 11.3992C66.0055 11.3992 67.097 11.6754 67.9216 12.2278C68.7429 12.7803 69.3458 13.6465 69.727 14.8196C70.1082 15.9961 70.2988 17.5613 70.2988 19.5153V22.1514C70.2988 24.0884 70.1117 25.6434 69.741 26.8164C69.3701 27.993 68.7672 28.8524 67.9355 29.3945C67.1039 29.9368 65.9742 30.2096 64.55 30.2096C63.0808 30.2129 61.9339 29.9333 61.1021 29.3809ZM65.7663 26.5369C65.995 25.9435 66.1129 24.9784 66.1129 23.6349V17.9774C66.1129 16.6747 65.9985 15.7198 65.7663 15.1196C65.5341 14.5161 65.1288 14.216 64.5465 14.216C63.9853 14.216 63.5867 14.5161 63.3581 15.1196C63.1258 15.7232 63.0115 16.6747 63.0115 17.9774V23.6349C63.0115 24.9784 63.1223 25.9469 63.3442 26.5369C63.566 27.1302 63.9644 27.4269 64.5465 27.4269C65.1288 27.4269 65.5341 27.1302 65.7663 26.5369Z" fill="white"/>
<path d="M83.7126 29.917H80.4622L80.1018 27.6936H80.0118C79.128 29.3714 77.8043 30.2102 76.0371 30.2102C74.8139 30.2102 73.9095 29.8146 73.3274 29.027C72.7452 28.2357 72.4541 27.0014 72.4541 25.3236V11.7545H76.609V25.0847C76.609 25.8965 76.699 26.4727 76.8792 26.8172C77.0594 27.1616 77.3608 27.3354 77.7836 27.3354C78.144 27.3354 78.4905 27.2264 78.8232 27.0082C79.1559 26.7898 79.3984 26.5136 79.5612 26.1795V11.7511H83.7126V29.917Z" fill="white"/>
<path d="M94.9985 8.34708H90.8748V29.9163H86.8101V8.34708H82.6865V5.05969H94.9985V8.34708Z" fill="white"/>
<path d="M105.02 29.917H101.77L101.409 27.6936H101.319C100.436 29.3714 99.1121 30.2102 97.3447 30.2102C96.1215 30.2102 95.2172 29.8146 94.635 29.027C94.0529 28.2357 93.7617 27.0014 93.7617 25.3236V11.7545H97.9166V25.0847C97.9166 25.8965 98.0066 26.4727 98.1868 26.8172C98.367 27.1616 98.6685 27.3354 99.0913 27.3354C99.4516 27.3354 99.7981 27.2264 100.131 27.0082C100.464 26.7898 100.706 26.5136 100.869 26.1795V11.7511H105.02V29.917Z" fill="white"/>
<path d="M118.77 14.6562C118.517 13.5104 118.112 12.6817 117.55 12.1668C116.989 11.6519 116.216 11.3961 115.232 11.3961C114.47 11.3961 113.756 11.6075 113.094 12.0338C112.432 12.4601 111.919 13.0159 111.559 13.7082H111.528V4.13928H107.525V29.9132H110.956L111.379 28.1945H111.469C111.791 28.8083 112.273 29.2891 112.914 29.6473C113.555 30.0019 114.269 30.1793 115.052 30.1793C116.455 30.1793 117.491 29.5416 118.153 28.2695C118.815 26.9941 119.148 25.006 119.148 22.2984V19.4236C119.148 17.3945 119.019 15.802 118.77 14.6562ZM114.962 22.0664C114.962 23.3895 114.906 24.4263 114.795 25.1765C114.685 25.9267 114.501 26.4622 114.237 26.7758C113.978 27.093 113.624 27.2499 113.184 27.2499C112.841 27.2499 112.526 27.1714 112.235 27.0112C111.944 26.8543 111.708 26.6156 111.528 26.3018V15.993C111.666 15.4985 111.909 15.0961 112.252 14.779C112.592 14.4618 112.966 14.3049 113.364 14.3049C113.787 14.3049 114.113 14.4686 114.342 14.7926C114.574 15.12 114.733 15.6656 114.823 16.4363C114.913 17.207 114.958 18.3016 114.958 19.7236V22.0664H114.962Z" fill="white"/>
<path d="M125.042 23.1133C125.042 24.2795 125.076 25.1526 125.146 25.7358C125.215 26.3188 125.36 26.7418 125.582 27.0112C125.804 27.2771 126.144 27.4101 126.604 27.4101C127.225 27.4101 127.654 27.1714 127.883 26.6974C128.115 26.2234 128.24 25.4323 128.261 24.3274L131.844 24.5353C131.865 24.6922 131.875 24.9104 131.875 25.1866C131.875 26.8644 131.407 28.1194 130.475 28.9481C129.543 29.7768 128.223 30.1928 126.518 30.1928C124.47 30.1928 123.035 29.5619 122.214 28.2967C121.389 27.0316 120.98 25.0776 120.98 22.4312V19.2598C120.98 16.5351 121.407 14.5436 122.259 13.2887C123.112 12.0337 124.57 11.4062 126.639 11.4062C128.063 11.4062 129.158 11.662 129.921 12.177C130.683 12.6919 131.22 13.4899 131.532 14.5777C131.844 15.6655 132 17.166 132 19.0824V22.1925H125.042V23.1133ZM125.568 14.5538C125.357 14.8096 125.218 15.229 125.146 15.8122C125.076 16.3953 125.042 17.2785 125.042 18.4653V19.768H128.081V18.4653C128.081 17.299 128.039 16.4158 127.959 15.8122C127.88 15.2086 127.734 14.7857 127.523 14.5368C127.311 14.2913 126.986 14.1651 126.546 14.1651C126.102 14.1685 125.776 14.2981 125.568 14.5538Z" fill="white"/>
</g>
<defs>
<clipPath id="clip0_2038_2573">
<rect width="132" height="29" fill="white" transform="translate(0 3)"/>
</clipPath>
</defs>
</svg>
